<svg width="467" height="193" viewBox="0 0 467 193" fill="none" xmlns="http://www.w3.org/2000/svg">
<path fill="#fff" d="M227.848 64.304a.42.42 0 0 0 .192-.192l.256-.128q-.32-.511-.768-.448h-1.408a1.3 1.3 0 0 0-.576 0 .72.72 0 0 1-.512-.064.8.8 0 0 0-.192-.128.6.6 0 0 1-.256-.064l-.32-.064q-.64.128-1.152-.192a4.7 4.7 0 0 1 .768-.064h.896a6 6 0 0 0 .448-.128q.192-.064.192-.448h.96l.384-.128a6 6 0 0 1 .448-.128q.32 0 .256-.448h-.512a.8.8 0 0 1-.448-.32h-.192q-.127 0-.192.128a.87.87 0 0 1-.64.256 3.3 3.3 0 0 0-.64-.064.6.6 0 0 0-.384 0h-.384q-.256.127-.64.256-.32 0-.448-.064-.192-.255-.64-.064-.257-.384-.384-.448-.064-.065-.448 0-.576.192-1.088.128-.127-.128-.384-.064l-.384.128q.128.256.448.192.384-.064.384.384h-.064q0 .064-.064.064a14 14 0 0 0-1.344-.064h-1.344l-.768-.128a3.4 3.4 0 0 0-.704-.192q-.064 0-.128-.064 0-.064-.064-.064-.448-.32-.704-.32-.192 0-.576.256a8 8 0 0 1-1.408-.896 29 29 0 0 0-1.28-1.088 2 2 0 0 1-.256-.32.6.6 0 0 0-.32-.256q-.256-.192-.256-.448a1.03 1.03 0 0 1 0-.512q.127-.256-.192-.384-.384-.32-.512-.704a7.5 7.5 0 0 1-.32-.896 2.5 2.5 0 0 0-.128-.32 1.6 1.6 0 0 1-.192-.384v-.576q0-.384.448-.128.512.064.96.448.384.32.832.704.192.065.192.576.065.448.576.64.128 0 .32.192.768.511 1.6.576.576.128 1.152.32.576.128 1.152.192.32.064.576.256a.87.87 0 0 0 .576.064l-.576.512q.192.384.512.384.32-.064.64-.064-.064.255-.064.512 0 .255-.128.512-.065.384-.576.256-.192-.128-.32-.064h-.32q-.449 0-.576-.128-.704-.192-1.28.128l.064.064q.32.065.64.192.32.064.64.064h.576q.832.384 1.792.192a4.5 4.5 0 0 1 1.088-.128q.576-.064 1.216-.128.192 0 .384.064.192 0 .384.192 0 .128.32.128l.064-.064a.6.6 0 0 0 .064-.256v-.192q1.344 0 2.752-.384.32-.128.576-.32.32-.256.576-.448-.128-.64-.256-.64-.127 0-.576.32-.448-.64-1.28-.256-.576.255-1.088.32h-.448a1.2 1.2 0 0 0-.384-.064q-.064-.32.256-.448.32-.192 0-.512a3 3 0 0 1 .32-.192 6 6 0 0 1 .448-.128h.512a.8.8 0 0 0 .576-.256q-.384-.32-.768-.128a.88.88 0 0 1-.64.128.87.87 0 0 0-.256-.64q.384-.128.704-.128l.64-.128q.704-.192 1.472-.384.832-.256 1.664-.576.96-.192 1.472-.896l.384-.256q.768-.064.576-.768 0-.448.384-.64.511-.32.96-.704.449-.385.96-.64a1.04 1.04 0 0 0 .448-.512q.128-.385.192-.64.128-.255.128-.704a4 4 0 0 1-.448-.192q-.192-.192-.512-.064-.32 0-.768-.32a30 30 0 0 1-1.216-.768 66 66 0 0 1-1.216-.832l-.512-.256a8 8 0 0 0-.576-.256 7 7 0 0 1-1.984-1.6 10 10 0 0 1-1.792-1.536 3.3 3.3 0 0 0-.64-.704 4.5 4.5 0 0 0-.64-.64l-.256-.256-.256-.384-.64-1.024a3.8 3.8 0 0 0-.832-1.024 1.6 1.6 0 0 1-.192-.384q-.064-.192.064-.448-.448-.128-.64-.448a4 4 0 0 0-.384-.64 1.6 1.6 0 0 0-.192-.384 1.6 1.6 0 0 0-.192-.384q-.384-.384-.192-.768.064.128.128.32.128.127.192.256.32 0 .576.128 0-.192-.064-.384v-.384q-.064-.192-.064-.704v-.832l.128-1.28.128-1.408q.064-.383.192-.704t.192-.704q.256-.64.512-1.216.256-.577.512-1.216l.576-.896q.128-.192.256-.32a.95.95 0 0 0 .256-.448 1.6 1.6 0 0 1 .192-.384l.32-.32q.384-.32.704-.576.384-.256.768-.576a.7.7 0 0 1 .384-.128q.256-.064.448.128-.768.576-.96 1.408l.064.128q.128-.128.256-.128t.192-.064l.256-.256a1.6 1.6 0 0 0 .192-.384q.128 0 .128-.064l.064-.064q.256 0 .32-.064.384-.192.704-.384l.768-.512-.128-.128q-.384 0-.448-.064t-.128-.448a1 1 0 0 0-.192-.256 1.6 1.6 0 0 0-.192-.384l.32-.32q-.768-.576.064-1.024a.48.48 0 0 0-.512-.192q-.192.127-.32.256a.8.8 0 0 1-.32.192q-.064.064-.192.064t-.256.128q.128-.384.32-.512.384-.448.832-.896t.896-.704a8 8 0 0 1 1.024-.768l1.152-.768q.32-.256.64-.448.32-.255.576-.512.256-.192.512-.448l.576-.576q0-.064.064-.064a.8.8 0 0 0 .128-.192 6.4 6.4 0 0 0-.96.32 2.4 2.4 0 0 1-.96.192q.128-.32.32-.448l1.088-.384q.256-.128.448-.192a6 6 0 0 1 .448-.128q.512-.127 1.088-.256a6 6 0 0 1 1.024-.256q.192-.128.384-.192l.384-.256q.448-.255.832 0 .32.192.576.384a.77.77 0 0 1 .448.448q1.216.192 1.984 1.344v.064h.064l1.024 1.024q.448.705 1.024 1.408.384.512.512 1.088.192.576.384 1.088.449 1.025 0 2.112 0 .127-.064.256 0 .127.064.256 0 .32.064.512.065.192-.192.512-.064.064-.064.256.064.192.064.32h-.64q-.576.064-.192.576.256.448-.192.576-.256.064-.256.448 0 .192-.128.448a6 6 0 0 0-.128.448 2.3 2.3 0 0 0-.192-.64l-.128-.512q0-.128-.128-.128l-.128-.128-.256.384-.128.896-.128.896-.128 1.28q0 .64-.448 1.216a.87.87 0 0 1-.256-.64 1.6 1.6 0 0 0-.064-.768q-.192.256-.32.576a1.7 1.7 0 0 1-.32.448 10 10 0 0 1-.32.448q-.192.256-.576.384a4.3 4.3 0 0 1-.064-.704q0-.384-.128-.64 0-.512-.192-.704a.8.8 0 0 1-.128-.192q0-.128-.064-.192 0-.32-.064-.576-.192.065-.448.32 0-.064-.064-.128v-.256a.7.7 0 0 0 .064-.32q-.192.128-.512.128.256-.384.32-.768.128-.384-.128-.832a.8.8 0 0 0-.128.192.5.5 0 0 0-.064.192h-.064a2 2 0 0 1-.064-.512q0-.256-.128-.576h-.448q-.192 0-.448.128-1.28.192-2.176.576a6.7 6.7 0 0 0-2.176 1.152l-.448.448a2.7 2.7 0 0 1-.512.384q-.32.255-.576.704-.192.383-.512.704a7 7 0 0 1-.64 1.024l-.64 1.024q-.384.448-.512.384-.065-.064-.192.512-.064.255.064.64.127.384.192.768.32.64.576 1.344.32.64.768 1.28l1.536 1.792a19 19 0 0 0 1.728 1.536l1.28 1.024q.704.449 1.344.96.64.384 1.216.768l1.28.768 2.496 1.664q.128.064.384.448.128.256.32.448l.512.384q.768.384 1.28.96.576.575 1.024 1.28.384.576.576 1.216.256.64.704 1.152.064.064 0 .256 0 .192.064.384.127 0 .192.064a.7.7 0 0 0 .32.064q0 .256-.064.768 0 .512-.256 1.856a1 1 0 0 0-.256.192 1 1 0 0 0-.256.192q0 .448.064.704-.256.064-.32-.064 0-.128-.128-.192-.128-.255-.32-.256-.512.127-.384.384.064.192-.064.256l-.192.192q-.703.448-1.344 1.408-.192.448-.576.768-.32.256-.704.576a.7.7 0 0 1-.256.128.7.7 0 0 1-.32.064q-.768-.192-1.024.448 0 .384-.384.512-.192 0-.192.256a.95.95 0 0 1-.256.448.8.8 0 0 1-.192.128q-.064 0-.192.128h-.128q-.449.384-.96-.128-.256.064-.448.064a2.5 2.5 0 0 0-.32.128q-.32.127-.576.256a3.4 3.4 0 0 1-.512.32l-.128.128q-.064.128-.128.128-.32-.064-.512.064a.6.6 0 0 1-.32.256.7.7 0 0 1-.384.128h-.384a.8.8 0 0 1-.576.256q-.256.064-.576.128l-.384.128-.384.128-.64.128a1.7 1.7 0 0 1-.64.128m-13.184-5.184q.256.128.32-.064-.32-.511-1.024-.448 0 .32.256.384a6 6 0 0 1 .448.128m4.16-.448q.256-.128.64-.064-.384 0-.64.064m3.52-1.344V57.2h.448v.064a.6.6 0 0 0-.256.064zm8.704 6.08q.128-.128.256-.192.192 0 .192-.256-.32-.128-.448-.128a5 5 0 0 0-.32.448q.256 0 .32.128m-3.776-3.712.768-.128q.448-.065.832-.32.192 0 .192-.192 0-.128-.128-.192a.8.8 0 0 0-.128-.192.6.6 0 0 0-.256.064.6.6 0 0 1-.256.064.6.6 0 0 0-.256.064h-.192q-.449-.064-.576.128-.065.128 0 .704m9.28 2.176a1.7 1.7 0 0 1-.064-.512q0 .128.128.192.128.065-.064.32m.704 0q0-.64.576-.64.064 0 .064.064a.7.7 0 0 1-.256.256 2.5 2.5 0 0 0-.384.32m-18.688-27.328a.88.88 0 0 1-.128-.64q.128-.32.128-.704.192.32.192.576.064.255.064.512 0 .064-.128.128zm1.6-5.056a.8.8 0 0 0-.128-.192l-.128-.256.384-.256q.192-.127.448-.256a7 7 0 0 1-.256.832q0 .064-.128.128zm1.344-1.856q-.257-.768.576-.832-.064.448-.576.832m4.672-2.496-.064-.192q0-.064.192-.064v.064h.064zm2.496-1.28q.32-.128.576-.192.256-.128.384-.512-.449-.128-.576.064a12 12 0 0 1-.384.64m-.576-.512q.448-.064.768-.512.256-.384.704-.064.128.128.32.192t.384.192q.32-.255.576-.512.32-.32.704-.384.384-.128.384-.512.192-.192.192-.576a.42.42 0 0 0-.192-.192l-.128-.256q.32-.512.64-.256.384.192.704.192l.128-.384q.065-.192.192-.448h-.32a.27.27 0 0 0-.256 0 3.7 3.7 0 0 0-.64.192l-.64.128a.8.8 0 0 0-.384.192q-.128.128-.128.512.384.256.384.448.064.128-.256.448a1.5 1.5 0 0 1-.256-.384l-.704.704q-.192-.192-.576-.128-.32.064-.384-.448a3.7 3.7 0 0 0-1.024.384 1.8 1.8 0 0 0-.768.64q-.065.127-.192.256l-.192.192q.448.256.704-.128.128-.064.256-.192.192-.128.384-.192.192.32-.128.32-.384.064-.256.576m4.096-1.28h.384q-.128-.064-.128-.128-.064.064-.256.064zm-3.712-4.16q.32-.448.384-.448.128-.064.448.128a1.6 1.6 0 0 0-.384.192 6 6 0 0 1-.448.128m32.363 34.688a.5.5 0 0 0 .064-.192q0-.128.064-.192h.512q.256.32.448.704.256.384.256.832a1 1 0 0 1-.192-.256q-.32-.32-.512 0a.5.5 0 0 0-.064.192q.064.064.064.192t.128.128q.32.064.32.256v.384q.128.064.32.128t.32.384q.32.256.768.576.64.256 1.28.64.257.128.768-.256l-.448-.448-.384-.512q.192 0 .32.064l.704.192a.7.7 0 0 0 .32.064q.256-.127.448-.256a2.2 2.2 0 0 0 .448-.448q.32-.255.512-.512.256-.32.512-.576.128-.128.256-.32l.32-.32q.192-.384.384-.704a7 7 0 0 0 .448-.768 15 15 0 0 0 1.28-1.92 32 32 0 0 0 1.024-2.112 7 7 0 0 0 .576-1.344q.256-.512.32-.704.064-.64.448-1.344.128-.512.256-.96.192-.448.32-.896l.128-.64.128-.64q.128-.832.256-1.6.192-.832.448-1.6l.128-.64a1.9 1.9 0 0 0 0-.704 2.3 2.3 0 0 1 0-.768q.127-.384.192-.832a9.4 9.4 0 0 0 .128-1.536 8 8 0 0 1 .256-1.472q.192-.511.064-.96a1.5 1.5 0 0 1 .192-.96 2.5 2.5 0 0 1-.512-.192q-.064-.256-.128-.576 0-.32-.064-.704.064-.064.064-.128.384-.64-.192-1.28.256-.192.448-.384.257-.255 0-.704.512.255.32.704t-.128.832q.065.384.192.768v.064q0 .064-.064.128-.384 1.024.256 1.408.32.32.128 1.088a.7.7 0 0 1 .064.32q.064.192.32.192l.128-.128q.127-.832.192-1.536.064-.704.064-1.472a3.2 3.2 0 0 0-.064-.64 8 8 0 0 0-.128-.64v-.512q0-.256.064-.448.127-.705 0-1.216a8 8 0 0 0-.384-1.216q-.128-.256-.128-.384.064-1.025-.512-1.728a2.5 2.5 0 0 0 .064-.96 1.9 1.9 0 0 0-.256-.96l-.128-.512a4 4 0 0 0-.128-.512 6 6 0 0 1-.064-.832q.064-.448-.32-.704.448-.128.704.064.256.128.512.448l.128-.256a1.6 1.6 0 0 0 .192-.384l.448.704.256.384q.192.192.512.128.128-.064.256.256.064.32.448.064l-.32-.32v-.064l.064-.064q.384-.192.576.192 0 .064.128.192v-1.024l.128-.064q.448.64.256 1.408a2.5 2.5 0 0 1-.384-.32q0 .384.32.384.192.064.32.512.192.256.192.64a.8.8 0 0 1 0 .448v.512a1.4 1.4 0 0 0-.512-.256q.192.768.192 1.344h.128q.064-.064.064-.192.064-.128.128-.384v.384q.064.127.064.256.192.32-.064.32-.32.192-.32.512t-.064.64q-.064.64-.064 1.344 0 .64-.064 1.344 0 .256.064.576.064.256.064.576v3.52q0 .128-.064.192-.576.768 0 1.664a4 4 0 0 1-.256.448q-.128.192-.064.512.192-.192.256-.32.192.448 0 .576-.256.064-.256.256.064.192.128.32.128.255.128.32l-.32.128-.064.064q.32.511.064.96-.064.128-.064.384v.448q.064.512-.128.896-.192.32-.448.704-.128.128-.064.32.127.32 0 .512a2 2 0 0 1-.256.32q-.257.256 0 .576.32.384.192.704a2 2 0 0 1-.256.64q0 .064-.064.064v.064q.128.512.064.704-.064.127-.512.256.127.255.384.512l-.192 1.216-.128.128a.8.8 0 0 0-.128.192l-.128.768q0 .384-.128.704v.512a3.7 3.7 0 0 0-.384.96q-.128.512-.256 1.088 0 .127-.128.256l-.128.384q-.065.128 0 .32 0 .705-.32.896-.127.255-.192.32a18 18 0 0 1-.704 1.984l-.384.64a9 9 0 0 1-.32.576 4 4 0 0 1-.64.832l-.64.768a1.95 1.95 0 0 0-.448.64q-.256.448-.512.576a13 13 0 0 1-1.152.896q-.576.384-1.088.768-.192 0-.256.064a26 26 0 0 1-1.536 1.536 4.8 4.8 0 0 1-.896.512l-.128.128a3.5 3.5 0 0 1-1.152.96q-.64.32-1.344.64-.256.064-.576.128a1.4 1.4 0 0 0-.448.192q-.32 0-.384-.128-.449-.32-.96 0h-.128q0 .064-.128.064a2.7 2.7 0 0 0-.832-.256 1.1 1.1 0 0 1-.704-.256q-.256-.255-.704-.32a3.5 3.5 0 0 1-.704-.32l-.512-.384a4 4 0 0 1-.384-.448 16 16 0 0 0-.64-.512 7 7 0 0 0-.576-.512l-.64-.576a15.7 15.7 0 0 1-1.536-2.56 2.05 2.05 0 0 0-.256-.768l-.256-.768a13 13 0 0 1-.32-.96 1.44 1.44 0 0 1 .128-1.024l.128-.128q.384-.127.384-.256.064-.127-.128-.576a1.4 1.4 0 0 1-.064-.448v-.512a.7.7 0 0 1-.064-.32q0-.192-.064-.256 0-.192-.128-.576v-.128q.064-.128 0-.192a5.6 5.6 0 0 1-.384-.96 9 9 0 0 0-.192-1.024 9.7 9.7 0 0 1-.384-1.6 22 22 0 0 0-.192-1.728q-.127-.577-.192-1.216-.064-.704-.064-1.344l-.192-1.984a36 36 0 0 1-.128-.832V38a32 32 0 0 1-.064-1.984V31.28q.064-1.408.064-2.816a3.2 3.2 0 0 0-.064-.64 3.2 3.2 0 0 1-.064-.64q-.128-.32 0-.512.256-1.216.064-2.304a7.4 7.4 0 0 0-.576-2.112 1 1 0 0 1-.064-.32 2.35 2.35 0 0 0 0-1.088 30 30 0 0 0-.256-.96q.32-.512.768-.512.512 0 .896-.128.192-1.024-.512-1.728l.256-.128h.384q.128-.127.32-.256.192-.192.192-.384 0-.512.448-.512.449-.128.576-.448.256-.32.64-.192.32.064.704.192.384.127.704.256l1.28.384.768.256q.384.064.768.256a.62.62 0 0 1 .384.256q.192.192.32.384.192.128.064.576 0 .128-.064.32 0 .127.128.256.32.575.32 1.28.064.64.064 1.344 0 .448-.128.832-.064.384-.128.896 0 .32-.064.768 0 .384-.064.832a21 21 0 0 1-.256 2.304 349 349 0 0 0-.256 2.24q-.064.256-.064.576 0 .256-.256.576-.128.128-.128.384t.064.448q.127.512 0 1.024l-.128 1.024a2.5 2.5 0 0 0-.128.32.44.44 0 0 1-.128.32 2.3 2.3 0 0 0 0 .768q0 .256-.064.576 0 .255-.128.512-.064.255-.064.64 0 .32-.064.704.256-.064.32-.128t.32-.512v.192a.27.27 0 0 1 0 .256 2 2 0 0 0-.256.704v.64q-.064.255-.064.64 0 .32-.064.576 0 .384.064.576v.384a.7.7 0 0 1-.128.384q-.128.128-.128.448.065.448 0 1.024 0 .576.256 1.088a.7.7 0 0 0 .32-.064q0 .448.064.832.127.384 0 .896-.065.064 0 .256a.44.44 0 0 1 .128.32v.128q.065.064 0 .128-.256.256-.064.768a.7.7 0 0 1 .064.32q0 .128.064.32-.32.256-.32.384 0 .064.256.384.192.255.32.512.127.255.192.512l.256 1.024q.192.448.512.768-.256.256-.384.448a8 8 0 0 0-.256-.576.77.77 0 0 0-.448-.448v.256q.192.256.256.576.127.256.384.448.064 0 .064.064 0 .511.32.576.384.065.64.32-.065.32 0 .448.127.064.576.256 0-.32-.192-.448a1.6 1.6 0 0 0-.384-.192m.064 2.112q0 .192.064.256.256.768 1.024 1.536.192.256.448.384.32.127.512.256l.512-.128a33 33 0 0 1-1.216-1.28 2.9 2.9 0 0 0-1.344-1.024m15.04-23.04a1.7 1.7 0 0 0-.064.384v.256q-.064.255-.064.512 0 .192-.064.384a4.6 4.6 0 0 0-.064.768q.064.32.128.704l.256-.192.128-.512q.065-.255 0-.512a13 13 0 0 0-.128-.576q0-.256.192-.64.192-.192-.32-.576m-1.536 16.064q-.32.064-.256.384.065.256 0 .384.256-.192.256-.768m1.344-12.672h-.064q-.064.192-.064.576h.064v-.256a.7.7 0 0 0 .064-.32m-10.048 23.616-.128.128q-.064.064-.064.128.127.128.192.128.064 0 .064-.064t-.064-.128zm11.008-41.344-.512-.256a.98.98 0 0 0-.512-.256.5.5 0 0 0-.064-.192v-.256q0-.384.256-.32.32 0 .32.256.064.256.128.384a.8.8 0 0 1 .192.32zm-1.408 6.016q-.32 0-.384-.128l-.256-.512q-.128-.255.064-.64.256.192.384.576.127.32.192.704m2.56-6.464q.127.192.192.32a.8.8 0 0 1 .128.192q.128.32-.256.32-.32.064-.32-.32a.5.5 0 0 0 .064-.192q0-.128.064-.192zm-2.88 6.848q.064.255.064.512v.512l-.064.064a13 13 0 0 0-.128-.576v-.512zm2.24-7.808a.5.5 0 0 1 .192-.064.8.8 0 0 0 .192-.128q.128.128.064.192-.128.449-.448 0m-24.128 34.368a1.6 1.6 0 0 0-.384-.192l-.256-.128.192-.192a.42.42 0 0 1 .192-.192q.192.255.256.704m7.68.96q0 .512.064.832-.32-.32-.32-.384 0-.128.256-.448m13.376-30.4a7 7 0 0 1-.384-.32l.064-.064V20.4h.32zm5.248 5.504q.32.256.064.448h-.192q-.128-.256.128-.448m-2.176-11.328q-.127 0-.192.064-.064.064-.128 0-.065 0-.192-.192.064 0 .128-.064t.128-.064zm-.256 2.816v-.32l.128-.064v.128q.064.064.064.192-.127 0-.192.064m-13.504 36.736a1 1 0 0 1-.192-.128q.064-.065.128 0 .064 0 .064.128m24.291 1.536h.064q-.127.128-.384.128a.6.6 0 0 1-.256.064v-.448q.064-.064.128-.064a.42.42 0 0 1 .192.192.7.7 0 0 0 .256.128q.064-.256.128-.448a.62.62 0 0 1 .256-.384q.128-.127.128-.256v-.32l-.128-.256a2.5 2.5 0 0 0-.128-.32q-.065-.127 0-.384v-.448h-.064v-.064q-.127.192-.576.64-.065-.384.192-.576.32-.192.448-.384l.256-.384q.128-.192.064-.576.384.192.512.32.32-.32.384-1.088.128-.832-.128-1.088l-.128.256-.192.576v.32q-.384 0-.384-.32.128-.32.064-.576 0-.32.064-.64v-.64q.064-.384.064-.832 0-.128-.192-.192-.127-.255-.384-.256a8 8 0 0 0-.64-.128q-.32 0-.32.384-.064.255-.064.64v.64q-.064.255-.064.512 0 .192-.064.448l-.128.512q0 .192-.064.448a2.7 2.7 0 0 1-.192-.96l.128-1.024a6 6 0 0 0 .064-.896q.064-.511.064-.96 0-.32-.064-.576a2 2 0 0 1-.064-.512q0-.128.064-.192a.6.6 0 0 0 .064-.256q0-.32.064-.576.128-.32.128-.64.064-.32.064-.512 0-.256.064-.448 0-.384-.32-.832-.064-.192-.064-.576t.064-.512q.32-.256.256-.832 0-.064.064-.192l.128-.256q.127-.256.384-.448.256-.255.32-.64l.128-1.024q.127-.512.192-1.024v-.32q0-.192.064-.448.192-.448.192-.896 0-.511.192-.96.127-.576.192-1.152l.128-1.28.192-1.728q0-.64.128-.896 0-.255.128-.512v-.192q-.192-.32-.064-.576.192-.255.256-.512.127-.127.192-.256.064-.192.128-.448.128-.128.256-.512h.064v.704q-.064.255-.064.64 0 .32-.064.64 0 .064-.064.256v.256q-.128.064-.128.192-.064.256-.128.576v.576q0 .256.064.384h.064l.128-.064q0-.064.064-.128h.128q0 .064.064.192.064.065.064.192-.064.32-.128.704a3.7 3.7 0 0 1-.192.64v.448q0 .192-.192.384-.065.064-.192.384-.127.128 0 .32.065 0 0 .128 0 .064-.064.064a.42.42 0 0 0-.192.192v.256q0 .064-.064.128v.064a.82.82 0 0 0-.32.512 3.2 3.2 0 0 0-.064.64l-.192.896q-.065.32-.192.768a7 7 0 0 1-.192.896q-.064.448-.128.832v1.088q.127-.128.192-.128l.128-.128q.257-.32.768-.256.127.064.192-.064a.7.7 0 0 1 .128-.256q.064-.384.064-.832t.064-.896q.064-.512.128-.896.127-.384.192-.832 0-.256-.064-.448 0-.255.064-.512.064-.192.064-.32.064-.192.064-.384a8 8 0 0 1-.064-1.024q0-.576.192-1.024.128-.384.128-.768t.064-.768q0-.128.128-.384v-.192q.064-.064.064-.128v-.96a2.8 2.8 0 0 0-.064-1.024 3 3 0 0 1-.064-.576q.064-.256.128-.576.192-.192 0-.384-.065-.512-.576-.32.064-.256.064-.448.064-.192.128-.448v-1.4080000000000001q.064-.064.064-.128.127-.705-.384-.96-.192 0-.192-.192l-.384-.768a6 6 0 0 0-.32-.768 13 13 0 0 0-.128-.576q0-.255-.064-.512a6 6 0 0 1-.128-.448q-.064-.255-.256-.32l-.128-.128a.8.8 0 0 1-.128-.192 1.33 1.33 0 0 0-.384-.768 8 8 0 0 0-.576-.64q0-.064-.064-.064-.065-.576-.576-1.088 0-.255.192-.32.257-.128.576-.128h.576q.32 0 .64-.064l.64-.128q.128-.127.128-.256.065-.255.192-.32l.384-.256q.064-.064.32-.064.32.128.384-.192.192-.193.512-.064.128.127.32.256a.8.8 0 0 1 .384.192h1.28a2.5 2.5 0 0 1 .96-.064q.448.064 1.024.192v.064q.512-.128.704-.128h2.112q1.024 0 1.792.064a8 8 0 0 1 1.408.256q.768.127 1.408.256l2.368.384q.448.064.768.192.384.127.64.256.448.064.832.128t.768.192q.449.128.768.32l.768.256q.896.32 1.472.704a.62.62 0 0 1 .384.256q.192.128.448.32.192.127.448.256.32.128.576.32.128.192.32.384l.32.32q.064.064.064.128.512.192.768.576t.512.704q.512.767.32 1.856v.768q0 .768-.32 1.536l-.256.768q-.065.383-.192.704-.127.383-.384.704a4.4 4.4 0 0 0-.32.64q-.192.256-.256.576a3 3 0 0 1-.192.32 4 4 0 0 1-.192.448 6 6 0 0 1-.32.768q-.192.383-.512.704a1 1 0 0 1-.256.384 1.5 1.5 0 0 0-.256.384q-.32.384-.64.832-.256.448-.576.896a3 3 0 0 1-.448.576q-.192.255-.448.512a8 8 0 0 0-.576.64q-.256.255-.448.704-.192.127-.32.256a2 2 0 0 0-.256.32 3.6 3.6 0 0 1-.576.576 3.2 3.2 0 0 0-.576.96q-.128.32-.448.32-.384 0-.384.32v.192a2.5 2.5 0 0 0-.128.32q-.065.128 0 .192l.384.256q.192.128.384.192 1.664.255 3.328.96l.384.128q.192 0 .384.128l.384.256a.8.8 0 0 1 .384.192q.384.255.832.512.448.255.704.512l.832.96q.32.255.512.512l.512.512q.127.127.192.256.128.256.32.576.256.256.384.576.127.192 0 .448a3.5 3.5 0 0 0-.128.96q0 .449.064.96v.256a2 2 0 0 1-.256.64l-.256.64q0 .192-.064.256 0 .512.32.576-.128.255-.256.64a8 8 0 0 1-.192.832 1 1 0 0 1-.256.384l-.256.384a1 1 0 0 1-.256.384 1.6 1.6 0 0 0-.384.384.8.8 0 0 0-.128.192q0 .127-.064.256a2.3 2.3 0 0 1-.64.64 2.5 2.5 0 0 1-.384.64q-.256.32-.512.704a2.2 2.2 0 0 1-.448.448 1.1 1.1 0 0 0-.32.32q-.128.127-.32.256a1 1 0 0 0-.256.192 1 1 0 0 0-.256.192.39.39 0 0 0-.256.256q-.448.192-.832.576l-.256.128a1 1 0 0 0-.256.192q-.256.255-.64.512l-.768.384q-.32.255-.704.448a.98.98 0 0 0-.512.64h-.064a.61.61 0 0 0-.512.256q-.128.192-.448.256v.512q-.384-.128-.576 0l-.384.256q-.192.32-.448.448-.257.127-.576.256-.448.192-.832.32a3.5 3.5 0 0 0-.704.32q-.128 0-.128.128a1.5 1.5 0 0 1-.512.512h-.128l-.192-.384-.256.384q-.448.448-1.088.256-.064-.064-.128-.064-.064.064-.128.064h-.768a4.7 4.7 0 0 1-.768-.064q-.128 0-.256-.128a9 9 0 0 0-.768-.32q-.448-.192-.64-.128a.8.8 0 0 1-.192.128.5.5 0 0 0-.064.192q-.192.191-.32.128-.32-.127-.704 0l-.192.192v.128q.064.065.064.192-.128.192-.512.448a1 1 0 0 0-.384-.256.43.43 0 0 0-.32-.128q-.128-.384-.704-.256l-3.008-.064-.256-.128q-.128 0-.32-.064.128-.127.128-.384 0-.192.064-.384a2.5 2.5 0 0 1-.512-.192q-.192-.064-.32-.448 0 .064-.128.064a1.2 1.2 0 0 0-.064.384.7.7 0 0 1-.064.32l-.256-.832a1 1 0 0 0-.256.384 3.3 3.3 0 0 1-.384-.576 4 4 0 0 0-.192-.448q0-.128-.064-.192v-.192l-.192-.128q-.064.064-.064.128l-.128.064q0 .255-.064.512 0 .255-.064.512-.32-.064-.192-.448 0-.255-.064-.32-.065-.065-.384 0 0-.192.192-.512.257-.32-.384-.384a5.7 5.7 0 0 1-.128-1.088v-.192q.127-.127.192-.256l.128-.256q.128.128.256.32.127.192.192.384l.32-.576q.256-.256.128-.576V58.8l.256-.384q.128-.192.256-.32a.7.7 0 0 0 .256-.256q.064-.127.128-.384l.128-.64q.064-.32.128-.704zm9.344 1.344.064-.064q.128.127.128.384.256.64.32.768.192.128.448.192.256 0 .512.128a.87.87 0 0 0 .576-.064q.256-.127.704-.256.384-.192.896-.32a10 10 0 0 1 .96-.192q.448-.192.448-.32.064-.128-.064-.448 0-.192.064-.32.065-.128.384-.128.128 0 .256-.128l.192-.192q.64-.192 1.024-.512.127-.192.192-.32.128-.128.256-.192a1.1 1.1 0 0 0 .256-.704q0-.255.128-.32.192-.128.448-.384.32-.256.576-.384.128-.192.32-.384.256-.192.384-.448.127-.32.192-.768.064-.448.128-.832.256-.383.128-.704-.384-.448.128-.64v-.064h.064q.512-.768.896-1.408.384-.704.512-1.664.064-.128.128-.32t.064-.384q.128-.512.128-1.088l-.064-.064q0-.064-.064-.064a11 11 0 0 1-1.024-.448 2.06 2.06 0 0 0-1.152-.192.6.6 0 0 1-.256.064q-.065-.064-.192-.064a1 1 0 0 0-.448-.128l-1.216.192a7 7 0 0 1-.896.064h-.896q-.64.064-1.088.064t-1.024.32a2.7 2.7 0 0 1-.64.064q-.704 0-1.216.384a8 8 0 0 1-1.024.768q-.449.32-.96.768l-.192.192q-.384 0-.448.256 0 .256-.064.576v.448q-.192-.127-.192-.256 0-.576-.384-.448l-.256.128a.8.8 0 0 1-.192.128q-.448.256-.576.448t-.128.64q.064.32.064.768v.448q0 .192-.128.512-.065.192 0 .512.064.256.064.576a7.7 7.7 0 0 1 0 1.408q0 .64.064 1.344 0 .192.064.384.127.192.192.512 0 .064.064.128.127 0 .192-.064a.6.6 0 0 0 .256-.064q.192-.064.384-.064a.32.32 0 0 1 .384 0q.192 0 .192.32l-.064.256q.064.384.384.512h.064q.127 0 .192-.064.064.064.064.192.064.064.128.384-.256 0-.256.192 0 .127-.064.256a.7.7 0 0 1-.256.128q-.192 0-.256.128-.256.448.384.576l.448.192q.32-.255.192-.832m-1.024-19.392q0-.064-.064-.064v-.064q.192-1.344.576-2.944v-.448q.064-.255.064-.512.064-.256.128-.576a3 3 0 0 0 .064-.576q0-.512-.448-.256-.064 0-.256.192a3 3 0 0 1-.256.512 4 4 0 0 1-.256.448l-.192.768a.8.8 0 0 1-.128.192v.128q-.127.256-.384.448a.48.48 0 0 0-.192.512q.064.384.256.832t-.192.896q-.064.192.128.384a.5.5 0 0 1 .192-.064l.128-.064h.064a.6.6 0 0 0-.064.256q0 .065-.128.192-.32 0-.32-.128-.128.255-.128.448 0 .32-.064.64 0 .255.064.512.128.32.128.512.065.192-.192.384-.256.512-.128.704.192.255.832.128.064-.064.256-.064.512.128.576-.32.127-.32.192-.576.127-.32.192-.576v-.256q-.128-.192.32-.512-.192.768-.192 1.344 0 .128.064.192.128.064.256.192l.384.192.064-.384q-.064-.255.128-.448.192-.255.256-.512.128-.192.32-.32.256-.192.448-.384.448-.192.512-.384.127-.32.192-.576l.256-.64q.192-.255.32-.512.192-.255.448-.512.512-.512 1.216-1.088.768-.576 1.408-1.216l.256-.256q.127-.192.384-.384a.7.7 0 0 0 .064-.32.7.7 0 0 1 .128-.256q.32-.128.448-.32.127-.192.384-.384.257-.449.576-.768.384-.384.576-.896a5.7 5.7 0 0 0 .768-1.216q.257-.577.576-1.216a5 5 0 0 0 .704-1.536l.512-1.664.128-.512.128-.512q.192-.512-.512-.576-1.856-.384-4.288-.576a34 34 0 0 0-3.328-.192q-.576-.705-1.024-.32-.384.384-.32 1.024.192.64-.512.896-.257.064-.576-.192v-.256h-.064a.8.8 0 0 0-.128.192 2.5 2.5 0 0 0-.128.32q-.192.255-.384.64a13 13 0 0 1-.256.704 5 5 0 0 1-.192.768 1.1 1.1 0 0 1-.32.576q-.128.448-.128.576.064.064.512.192-.512.255-.448.704.128.448-.256.832 0-.32-.064-.448v-.448h-.064q-.064.384-.128.448 0 .256-.128.768-.128.32.256.768.448.384 2.496.768-.257.384 0 .64.448.255 0 .512-.384-.256-.448.128a2.5 2.5 0 0 0-.128.32q0 .127-.064.256l-.128.128v.064q-.384.192-.384.576a2.6 2.6 0 0 1-.32.832l-.128.512q0 .192-.128.512 0 .065.064.192.064.064-.064.128a2 2 0 0 1-.256.64q-.128.256-.256.576l-.128.512zM285.91 58.032q.128-.127.128-.256a1 1 0 0 0 .064-.256l.128-.128q0-.064.064-.128.064 0 .064.064l-.128.768q0 .32-.128.704-.256-.192-.256-.384 0-.256.064-.384m8.64-27.968.256-.256q.127-.192.192-.448.256-.32.256-.512t-.32-.576q-.127.127-.192.256l-.192.192q-.192.064-.064.384v.256q.064.128.064.384zm-5.824 22.912q.128.064.128.128.064 0 .128.064h.128v-.32h-.384zm6.208 9.792q0-.192.192-.32.256-.065.064-.32l-.384.128q-.128.128-.256.192zm-4.16-24.832q-.192.32 0 .768.384-.576 0-.768m3.072 22.016-.064.064q.064.065.064.192t.064.256h.192v-.384q-.064-.064-.128-.064t-.128-.064m6.72-45.312q-.257-.127-.192-.384.128-.32-.064-.512.064 0 .064-.064.32.064.512.128l.512.128a2.2 2.2 0 0 1-.448.448zm-4.992 36.096a.8.8 0 0 0-.32-.192.8.8 0 0 1-.192-.128q-.192-.448.192-.96.192.127.32.576.127.448 0 .704m-.32 2.944q0 .256-.064.448v.32q-.192 0-.256-.064v-.064q.064-.064.064-.128.064-.064.064-.256.064-.064.064-.256zm.128-1.28-.128.256q0 .127-.064.256-.064-.064-.128-.064.128-.255.128-.448zm1.28-22.08q.192-.448.256-.896.384.576-.256.896M293.28 116.672q-.448.256-1.024-.32-.064-.192-.32-.448t-.704-.32q-.192 0-.32-.32l-.384-.448a3 3 0 0 0-.576-.448 7 7 0 0 1-.576-.512 7 7 0 0 1-.512-.576 3.7 3.7 0 0 0-.576-.576.41.41 0 0 1-.32-.32l-.384-.512a4 4 0 0 0-.32-.384.43.43 0 0 0-.192-.192.8.8 0 0 0-.128-.192 5 5 0 0 1-.448-.512 5 5 0 0 0-.448-.512 2.2 2.2 0 0 0-.512-.576 3.7 3.7 0 0 1-.576-.576 1 1 0 0 0-.192-.256l-.256-.256-.64-.64-.64-.768a3 3 0 0 0-.192-.32 1.5 1.5 0 0 0-.256-.384 78 78 0 0 1-.832-1.088 17 17 0 0 0-.896-1.088l-.256-.256a1 1 0 0 0-.256-.192q-.32-.448-.576.128v.96q0 .448-.064.832v.704q0 .384-.128.704-.384-.192-.384.256-.064.511.128 1.152a4.3 4.3 0 0 1 0 1.472q0 .384-.128.768a4.3 4.3 0 0 0-.064.704v.64q.065.32 0 .576v2.24q.064.256.064.512l.576.896q.128.065.128.192v.192a1.9 1.9 0 0 0-.128.704q.064.384.128.832 0 .256-.128.256-.32.256-.384.576a1.3 1.3 0 0 0 0 .576v.192q-.257-.128-.384-.064-.065 0-.192.448-.192-.192-.192-.256a.7.7 0 0 1-.256-.256.43.43 0 0 0-.192-.192q0-.256-.192-.256t-.192.064q-.256.384-.128.896.127.065.192.384 0 .512-.32.512a.5.5 0 0 0-.192.064.8.8 0 0 1-.128.192q0 .064-.704.128l-1.28.256q-.64.128-.64.256-.065.064-.192.384-.128.128-.128.512 0 .192-.128.256v-.064h-.064l-.32-.32a2 2 0 0 1-.256-.32 1.8 1.8 0 0 0-.448-.512q-.192-.128-.32-.448l-.384-.64a4.4 4.4 0 0 1-.32-.64 3.1 3.1 0 0 0-.512-.896q0-.064-.128-.128l-.064-.064a3.7 3.7 0 0 0-.192-.64 3.2 3.2 0 0 1-.064-.64 9 9 0 0 1-.064-1.088v-1.216a.39.39 0 0 1 .256-.256q.128.128.128.256.128.064.128.256l.128.256q.127 0 .192-.064v-.192a.5.5 0 0 0 .064-.192v-.896l.128-.768q0-.448.064-.512.128 0 .128-.256 0-.257-.128-.384 0-.32-.064-.384 0-.257.064-.384.128-.127.128-.576-.128-.127.128-.384l.064-.064q0-.064.064-.128v-.32q.064 0 .064-.064.064.064.064.256l.192.512.128.128q.064 0 .064-.128a3.4 3.4 0 0 0 .192-.704q.128-.384.128-.768a10 10 0 0 1-.064-1.152l.128-1.28v-.896q.064-.511.064-.96 0-.127-.064-.192a.8.8 0 0 0-.128-.192q0-.128-.064-.128t-.064-.064a1.14 1.14 0 0 0-.128-.512v-.256q0-.704-.448-.448a.6.6 0 0 1-.064-.256q0-.511-.128-.768-.192-.257.064-.384.064 0 .128-.064.128 0 .128-.192a.5.5 0 0 0-.064-.192q0-.128-.064-.128-.192 0-.192-.448 0-.32-.064-.384 0-.384-.256-.192 0 .128-.192.128a.6.6 0 0 1-.064-.256q0-.512-.128-.704-.127-.576.192-.576.064 0 .128.064l.064.064q0 .32.064.448 0 .32.128.448.128.449.256.192 0 .192.064.32.064.192.32.064.256-.257.256-.768a.54.54 0 0 1 .064-.448 1.6 1.6 0 0 0 .192-.384q.127-.256.192-.576 0-.064-.064-.128a.5.5 0 0 1-.064-.192q-.32.127-.32.256-.064.064-.064.192-.192-.064-.192-.384l.192-.192q.128-.128.256-.128.192-.511-.32-.768a1 1 0 0 0-.192-.256.8.8 0 0 1-.192-.384v-.064a.98.98 0 0 1-.256-.512v-.576q0-.768.512-1.28 0 .128.064.32t.064.32q.128.384.128.576.32.192.384-.064.064-.192.064-.384t.064-.256v-.192q.128.192.128.512h.064v-.128a.5.5 0 0 0 .064-.192v-1.8559999999999999l-.064-.32q-.064 0-.064.064h-.128v-.064q0-.192.064-.32t.128-.32a.7.7 0 0 0 .064-.32v-.32q0-.127.064-.256.128-.192.128-.32v-2.1759999999999997q0-.128-.064-.192v-.064q-.128 0-.256.128a1.2 1.2 0 0 0-.064.384l.128.256q.064.065.064.32v.448q-.064.384-.256.32-.257-.256-.192-.448.128-.576.128-1.216v-1.28a.7.7 0 0 0-.064-.32v-.256q-.064-.448-.448-.448v-.448a1.2 1.2 0 0 1-.064-.384q0-.128-.064-.192t-.064-.128q0-.384.064-.768.064-.385.064-.64v-3.2a.8.8 0 0 0-.192-.384l-.192-.384a4 4 0 0 0-.384-.448 5 5 0 0 0-.448-.512 3 3 0 0 0-.448-.576 7 7 0 0 0-.512-.576q-.065-.32-.192-.384-.064-.32-.32-.448l-.32-.32q-.127-.065-.384-.32-.064-.064-.064-.192v-.192q.065-.128.192-.128h.256q.32-.064.576-.128l.512-.128.32-.064q.127-.128.576-.128.384.065.64 0a6 6 0 0 0 .448-.128q.768-.255 1.664-.064.32.064.448-.064l.384-.256q0-.128.064-.128.128-.064.128-.128h.128q.128 0 .128-.064 0-.32.192-.32.192-.064.512-.128 0 .127.064.256a.42.42 0 0 1 .192.192q.064.255.32.32a.7.7 0 0 0 .512-.192q.128-.128.256-.064h.384q.256.065.448.192.192.064.32.064.32.064.576.064h1.3439999999999999q.384 0 .896.064.384 0 .448-.384.257.32.576.384.32.064.64.064t.64.128l.64.128.256.128a.7.7 0 0 0 .32.064q1.152.384 2.304.576.704.32 1.216.384.32.128.576.192.256 0 .512.064.32 0 .576.064.32.064.448.448 0 .128.256.128.128.064.32.128.256 0 .32.128.256.064.256.256.064.128.128.32.064.064.064.128a.7.7 0 0 0 .256.128l.512.128q.32.064.384.384.256.255.384.448.128.192.32.32 0 .064.064.128.064 0 .064.064.128.255.256.32.127.064.384.128.256 0 .256.192a.7.7 0 0 1 .128.256q.064.192.064.32.064.385.128.64.064.256.128.576v.192a.8.8 0 0 1 .128.192q.127.064.192.256.127.127.192.256v.256q0 .127-.064.384 0 .192-.064.448t-.128.576l-.128.512a6.3 6.3 0 0 1-.32.96q-.064.128-.448.512l-.192.64q-.064.127-.064.384h-.256q-.065-.064-.192-.064-.32.192-.448.576-.064.256-.128.576a1.4 1.4 0 0 1-.256.576q-.256.256-.512.576t-.448.576q-.257.255-.576 0l-.128.128a.8.8 0 0 0-.192.32q-.065.127-.192.256-.064.064-.064.512v.128q.064.064.064.192-.192.064-.256 0-.064-.128-.32-.192 0 .192-.064.384a2.5 2.5 0 0 0-.128.32.8.8 0 0 1-.192.32q-.256.255-.384.448a4.6 4.6 0 0 0-1.28 1.088q-.065.127-.192.256l-.192.192-.064.256q-.064.064-.064.192 0 .127-.128.256l-.064.256q-.064.383-.448.704-.065.064-.768.384a32 32 0 0 0-1.344.576q-.64.255-.704.448l-.64.128q-.064.064-.128.064t-.128.128q1.344-.384 1.664-.256.384.064.512.256a1.6 1.6 0 0 0 .384.64q.32.256.448.576.256.384.384.832.127.384.384.64.448.833 1.088 1.728.32.64.64 1.216.384.576.64 1.088.192.256.32.448a.8.8 0 0 1 .192.384l.128.128q.064.064.064.128.32.32.448.768.192.449.384.768.256.128.32.32.127.128.384.256 1.088.257 1.472.576.448.32.704.576a.96.96 0 0 1 .32.384q.192.192.32.384.384.384.576.832l.256.192q-1.6-.64-1.6-.576.064 0 .256.32a.83.83 0 0 1 .384.384q.128.192.32.384.192.448.576.704a.6.6 0 0 0 .256.064q.127 0 .192.064a6 6 0 0 1 .448.128q.192.064.256.064.448 0 .768.512.256.32.448.704l.384.768v.064q0 .064.064.128.32.256.704.512.384.257.768.384.384.192.384.64v.32q0 .384.384.512.32.128.576.256.32.128.576.32a.7.7 0 0 1 .128.384q.064.128.256.32l.128.512q.064.257.256.576.128.32.064.576 0 .128-.128.128a.7.7 0 0 0-.256.128 1 1 0 0 1-.192.256 5 5 0 0 0-.192.576 5 5 0 0 1-.192.576q-.064.257-.448.192a2.5 2.5 0 0 0-.32-.128l-.384-.128q-.703-.128-.96-.448 0-.128-.32-.128-.384.128-.576-.256-.257-.576-.576-.704-.064-.064-.128-.064-.064.065-.128 0-.256 0-.384-.064l-.256-.128a.43.43 0 0 0-.192-.192.7.7 0 0 0-.256-.128.44.44 0 0 1-.32-.128q-.256-.256-.384-.256a.8.8 0 0 1-.384-.192.39.39 0 0 0-.256-.256h-.192q-.064-.064-.128-.064-1.025-.192-1.728-.576a5 5 0 0 0-.448-.512 1.04 1.04 0 0 1-.192-.64q-.128-.064-.128-.256m-12.608-23.808h.064v.448q0 .256-.064.576v.64l-.128.512q0 .192-.064.448 0 .705.704.832l.128.128a.8.8 0 0 1 .192.128q.127 0 .384.256.192-.448.512-.32h.448q.192-.065.32-.32a.42.42 0 0 1 .192-.192l.192-.192q.127 0 .384.256.512 0 .512-.32v-.128l.064-.064q.192.064.32 0a3 3 0 0 1 .32-.192q.256-.192.512-.256.064-.064.128-.064.127 0 .192-.064.257-.192.384-.448a.8.8 0 0 1 .448-.32.96.96 0 0 0 .384-.32l.32-.32a.6.6 0 0 0 .064-.256q-.127-.32 0-.448.32-.255.576-.448a.8.8 0 0 0 .32-.448l.128-.256q.127-.192.192-.448a.6.6 0 0 0 .064-.256.39.39 0 0 1 .256-.256V89.6l.064-.128q.576-.255.32-.704-.256-.192-.32-.384 0-.255-.064-.512a1 1 0 0 1-.064-.32q0-.128-.128-.32v-.448l.256-.384q.128-.192.32-.384a5.5 5.5 0 0 0 .448-1.792 9.6 9.6 0 0 0-.064-1.92q-.064-.32-.256-.448a2.5 2.5 0 0 0-.448-.32 2.5 2.5 0 0 0-.512-.192q-.256-.065-.512-.32 0-.192-.192-.192a42 42 0 0 0-1.088-.256q-.576-.128-1.152-.192a3.2 3.2 0 0 0-.896 0h-.896q-.895 0-1.152.768-.064.32-.128.576-.065.256-.192.576-.065.64-.192 1.216a12 12 0 0 1-.192 1.088v.064l-.128.128-.064-.064v-.384q-.32.576-.64 1.408l-.192 1.088q-.32.64-.192 1.024 0 .384-.32.448a1 1 0 0 0-.256-.192v.256q-.064.256-.128.576-.065.32-.192.448-.128.255-.128.448.064.192-.064.512a.5.5 0 0 1-.064.192.6.6 0 0 0-.064.256q-.065.256-.192.64-.127.383-.192.704-.064.255-.064.448a.7.7 0 0 1 .064.32v1.792q0 .192-.064.384a.6.6 0 0 0-.064.256q0 .256.064.576t.128.576q0 .255.064.256l.192.128q.192 0 .192-.128a.8.8 0 0 0 .192-.32q.127-.192.192-.256.192-.192.192-.384.064-.192.064-.448a.6.6 0 0 0-.064-.256q0-.127.064-.256.064-.511.128-.96zm-2.048 18.624h.192v-.128q.064-.064.064-.128.064-.704.064-1.344.064-.64.064-1.28a3.3 3.3 0 0 0 .128-.896v-.832l.064-.32v-.448q.064-.256.064-.512v-1.472q-.065-.192-.384-.064-.32.128-.32.704v.64q-.064.448-.128 1.024a8 8 0 0 0-.064.96q0 .449.064.96a2.1 2.1 0 0 1-.064.896 3.6 3.6 0 0 0 0 .96q.127.512.192 1.024 0 .128.064.256m14.848-22.784h-.192q-.256-.065-.384.192-.128.128-.128.448.32.32.384.064.256-.255.32-.704M279.776 104q-.192.128-.192.448t.064.448q0-.192.064-.384.064-.256.064-.512m-1.536-10.048q.256-.512 0-.64-.192.192 0 .64m-4.992-9.472h-.064v.64h.064zm-.192 6.976q0-.192-.128-.576a.8.8 0 0 0-.128-.192.5.5 0 0 0-.064-.192q-.064-.064-.064-.128v-.896q0-.449.064-.96l.256.128q.127.065.192.32v.064q.192 0 .128.128v.192q0 .576-.064 1.088a8 8 0 0 0-.064 1.024zm-.768 5.056v1.536q0 .064-.128.256-.064.128-.128.064-.064 0-.064-.128v-.832q0-.192.128-.448.128-.128.128-.448zm1.536-2.816-.192.832q0 .064-.064.128h-.064q-.192-.32-.064-.384.064-.192.128-.32t.128-.32q.064.064.128.064m8.256-20.48a.42.42 0 0 1 .192.192l.128.128q-.256.064-.384-.256zm-1.344 18.752V91.2q.32.576 0 .768m28.175 13.12q.065-.128.129-.128.128-.064-.064-.128l-.128-.256a.44.44 0 0 0-.128-.32 2.7 2.7 0 0 1-.256-.768q-.065-.448-.32-.704v-.256a.8.8 0 0 1 .192-.32v-.32q.063-.192-.192-.32v-.512a.5.5 0 0 1-.064-.192q.063-.064-.064-.128 0-.127-.064-.192-.064-.127.192-.192v-.384q0-.32-.128-.576-.256 0-.256-.256 0-.32.064-.32.32-.064.32-.384v-.064q.831-.833.192-1.664h-.128q-.064-.065-.064-.192-.192-.127 0-.384.831-.449 0-.96v-.064q0-.128-.128-.192 0 .064-.128.128-.065 0-.128.128v-.64q.063 0 .192-.128.127-.127.192 0l.256.128q.127 0 .256.128.32 0 .32-.256v-.32l.064-.512v-.384q.063-.255.192-.512 0-.128-.064-.32-.065-.192.064-.256.127-.255.192-.448a.8.8 0 0 0 .128-.448l.064-.064q0-.383.128-.704.192-.384.384-.64.128-.127.128-.256a.7.7 0 0 1 .128-.256.79.79 0 0 1 .384-.576q.192 0 .192-.32.063-.064.192-.064v-.192q-.129-.384.064-.576.255-.192.256-.384 0-.32.32-.32.127-.064.192-.256.127-.192 0-.32 0-.448.192-.448.255-.255.192-.32v-.384q-.32-.32.128-.512l.192-.192a1 1 0 0 1 .192-.256q.127-.128 0-.512-.321-.064-.192-.384.127-.32.256-.704.192-.385.448-.64.128 0 .128-.064 0-.128.064-.192V81.6q0-.128-.064-.128h-.448v-.128q0-.128.128-.128a.8.8 0 0 0 .192-.128q.192-.192.192-.384 0-.128.064-.128h.064q.32.127.64-.192.255-.255.512-.256.192-.128.384-.192.192-.128.384-.192a.6.6 0 0 0 .064-.256.7.7 0 0 1 .128-.192q.447.255.768.064.384-.192.768-.576v.128h.064q.127-.128.256-.32.127-.192.192-.32l.064-.064q.063-.128.128-.128v.256q0 .064-.064.128 0 .065.064.192v.256q.127 0 .192-.064l.064-.064q.32-.256.512-.384a2.5 2.5 0 0 1 .384-.32q.512-.256.512-.768.128 0 .128-.128a.4.4 0 0 1 .192-.192q.128.32.512-.064.64-.576.832-1.152v-.128q.32-.32.576-.64.256-.384.64-.448.192 0 .192-.128.127-.255.192-.256.128 0 .511.256l-.255.128h-.064l-.384.384h-.192a.43.43 0 0 0-.384.192l-.256.384q-.129.128-.256.512l.064.192h.32q.192-.064.256-.192v-.128q.32.064.512-.128a1.4 1.4 0 0 1 .32-.256q.127-.128.256-.128a.8.8 0 0 0 .192-.128q.127-.192.256-.32 0-.256.128-.384.063 0 .064.064v.064q.511.255.448.832a.7.7 0 0 0-.128.256q0 .128-.32.128v.32q.768 0 1.024-.192.767-.127.32-.96.192 0 .192.192.128 0 .128.064v.064a.5.5 0 0 0 .192-.064.5.5 0 0 1 .192-.064q0-.32.192-.32.32 0 .512-.128l.384-.384v-.128q.191-.512-.256-1.088a.8.8 0 0 0-.128-.192q-.065-.127.064-.256 0-.384-.256-.384-.065 0-.128-.064-.065-.064-.192-.064.128 0 .128-.064l.064-.128a.8.8 0 0 0 .192-.128q.063-.064.192-.064.128 0 .32.192 0 .128.064.192h.064q.511 0 .832.192t.576.512q.063 0 .256.256.256 0 .256.512 0 .256.384.192.128-.32.32 0 .64.128.704.512.255.128.384.512.128 0 .128.064l.064.064q.383.255.512.512.192.255.448.448.127.255.192.448.127.192.384.448l.512.448q.447-.128.512.32a.6.6 0 0 0 .32.256q.192 0 .256.128.192.128.32.32.127.127 0 .384 0 .065.128.192.192.127.064.256l-.192.064a.45.45 0 0 0-.384.384q-.065.256-.192.576 0 .255-.064.512a1.7 1.7 0 0 0-.064.384q-.192.32-.384.192-.192-.256-.64-.192-.129.128-.384.064a2 2 0 0 0-.448-.064.7.7 0 0 0-.192.512.8.8 0 0 0-.128.448l.128.512a.8.8 0 0 1 .192.32q.127.128.256.32v.32q0 .064-.128.256a.5.5 0 0 0-.064.192q-.065.448.192.896.063 0 .064.064-.192 0-.384.064-.192 0-.32.384a2.3 2.3 0 0 0-.64-.192q-.321-.127-.576.192l.064.256q.063.384.384.256h.256a.7.7 0 0 1 .256.128q.127.065.256.192l-.128.064-.128.128h-.256q0 .32.128.32a.8.8 0 0 1 .192.128q.063.064.192-.128.447.127.192.576v.064q.127.255.192.448.128.127.32.256.192.384.64.832 0 .128.384.128.128 0 .128.128l.128.128q0 .32.064.512l.192.192q.192-.127.32 0 .127.127.192.256 0 .065.064.192.063.064.128-.064.384-.127 0-.384.32-.32.384 0 .256.256.448.384.063.128.192.32.127.127.192.256.127.065.256.192.127.065.256.192.063.064.192.256a.44.44 0 0 1 .128.32l.192.192a.42.42 0 0 1 .192.192q.255.128.256.512v.256q0 .128-.064.192-.064 0-.064.128.192.576.192 1.216v.512q0 .384.384.384.255.255.192.448v1.088q-.256 0-.384-.064a.42.42 0 0 0-.192-.192q0-.065-.192-.32.127.256.192.576.063.32.384.384-.192.256-.192.384h.128a.6.6 0 0 1 .256-.064q.063 0 .064.256 0 .064-.064.128v.192q.127.64-.32.64v.512a.7.7 0 0 1-.064.32q0 .127.064.384.128 0 .128.128t-.128.256q-.065.192.064.256.127.065.256.192-.129.257-.192.576v.768q.255.128.256.704.32.128-.064.64 0-.127-.064-.192 0-.127-.128-.384h-.128q-.256.448-.192 1.024.127.512-.128.896l-.128.64q0 .32-.128.768-.32 0-.32.384a6 6 0 0 0-.128.448 10 10 0 0 1-.192.512 2 2 0 0 0-.192.256 1.2 1.2 0 0 0-.064.384q-.32.32-.32.512a.5.5 0 0 0-.064.192q.063 0 0 .128 0 .192-.128.448-.129.256-.192.512l-.192.064q0 .256-.064.448a1.4 1.4 0 0 0-.064.448q0 .576-.512.768 0 .256-.064.448l-.192.192a1.5 1.5 0 0 0-.192.32q-.065.192-.32.448a2.5 2.5 0 0 0-.32.384h-.128a.63.63 0 0 1-.32.576q-.321.192-.384.512a2 2 0 0 1-.384.512l-.448.448-.384.384a1.5 1.5 0 0 1-.512.32 1 1 0 0 1-.384.32 8 8 0 0 0-.576.32.8.8 0 0 1-.192.128 1 1 0 0 0-.256.192q-.449.064-1.088.448-.129 0-.256.128l-.192.192q-.321.256-.576.256a.7.7 0 0 1-.384.128q-.32.256-.896.256-.129.128-.448.128h-.512q0 .192-.448.192-.257-.32-.32.128-.065.192-.32.192a1 1 0 0 0-.32-.064q-.257 0-.576-.064a2.6 2.6 0 0 0-.512-.192h-.192a6 6 0 0 1-.448.128.8.8 0 0 1-.448 0 3 3 0 0 0-.32-.192q-.065-.128-.32-.128h-.32l-.192.192a4 4 0 0 0-.448-.192 1.4 1.4 0 0 0-.512-.192q-.129-.192-.448-.192v-.128q-.96.192-1.28-.576-.192-.32-.448-.064-.065 0-.128-.128a.43.43 0 0 0-.192-.192 1.7 1.7 0 0 1-.448-.256 10 10 0 0 0-.448-.32q-.065-.064-.128-.064-.064-.064-.064-.128-.129-.128-.256-.128l-.128-.128q-.192-.32-.384-.32-.192-.256-.32-.256-.065-.128-.32-.128-.256 0-.256-.256 0-.32-.384-.32h-.384a4.2 4.2 0 0 0-.896-1.088.7.7 0 0 0-.064-.32v-.192a.8.8 0 0 0-.128-.192q0-.128-.128-.128 0-.128-.128-.128-.064 0-.064-.064l-.064-.192q-.192 0-.32-.192a.8.8 0 0 0-.192-.32 6 6 0 0 1-.128-.448q-.065-.32-.32-.384v-.128q0-.256-.256-.256l-.128-.256a.43.43 0 0 0-.192-.192l-.256-.768a5 5 0 0 0-.384-.832 8 8 0 0 1-.32-.576 8 8 0 0 1-.256-.768.7.7 0 0 1-.128-.384q0-.384-.128-.576a2.3 2.3 0 0 1-.193-.576v-.512q.256-.192.193-.32zm13.249-18.816q-.449 0-.704.256-.513.448-.96 1.024-.385.576-.832 1.152-.256.127-.384.256-.065.128-.32.192-.32 0-.512.512l-.32.32q-.192.255-.192.448 0 .064-.064.128v.064a.98.98 0 0 1-.256.512l-.384.384-.192.576q-.129.32-.192.512a6 6 0 0 1-.32.768q-.129.383-.448.704-.129.449-.192.768-.065.256-.192.576v.064q0 .064-.128.128l-.128 1.152q0 .512-.32 1.088a.5.5 0 0 1-.064.192q-.064.065-.064.192a7.4 7.4 0 0 0-.192 1.664q0 1.6.192 2.88.192.832.384 1.6.255.768.512 1.6.127.192.256.512.127.32.384.64.255.384.32.768.127.32.384.576.447.448.768.896.32.384.768.832.32.128.448.32.192.128.448.256l1.6.576q.447.192.768.32.32.128.704.256.32 0 .576.064h1.7919999999999998a5.7 5.7 0 0 0 1.28-.256l1.152-.576a6 6 0 0 0 1.024-.704q.512-.32.96-.704.447-.448.768-.832.255-.192.448-.64.192-.511.448-.768.32-.704.64-1.28.32-.64.576-1.216a5 5 0 0 0 .192-.832q.127-.448.192-.896.127-.064.192-.32.128-.256.128-.448.128-.704.128-1.408t-.256-1.216q0-.192-.128-.448a2.4 2.4 0 0 1-.064-.576 4.4 4.4 0 0 1-.32-.64q-.128-.32-.32-.768a1.4 1.4 0 0 0-.192-.512 1.5 1.5 0 0 0-.256-.384 4.7 4.7 0 0 0-.64-1.216q-.321-.576-.576-1.024.192-.64.512-.448h.192q0-.511-.192-.768 0-.384-.384-.256-.321 0-.192-.256 0-1.024-.576-1.344l-.384-.192q-.065-.065-.192.192a3.2 3.2 0 0 0-.576-.832q-.257-.32-.576-.768.512-.128.896.32.192.192.384.448.192.192.448.128.063 0 .064.064h.128l.128.064q.128 0 .128.256v-.384l-.064-.064q0-.064-.192-.064 0-.128-.064-.192a.6.6 0 0 1-.064-.256q.192-.32-.064-.32 0-.32-.128-.32 0-.705-.704-.896a1 1 0 0 1-.448-.128 4 4 0 0 0-.448-.192q-.449-.192-.192-.64 0-.064-.128-.064-.064-.064-.064-.256h-.192a4 4 0 0 0-.448-.192q-.129-.065-.256-.32a.8.8 0 0 0 .192-.32.6.6 0 0 0-.256-.064.4.4 0 0 1-.192-.192v-.32h-.384a.7.7 0 0 0-.32-.064 2.3 2.3 0 0 0-.704-.128 2 2 0 0 0-.512-.064q-.065 0-.128-.128-.065-.192-.192-.256-.065 0-.128-.064-.065-.064-.192-.064-.129-.192-.32-.192-.449-.192-.704.192-.32.32-.128.768h-.32q-.192-.064-.32 0-.064 0-.064.192zm15.552 10.24v-.192q0-.192-.256-.192v-.064.064q-.065.255.064.32a.5.5 0 0 0 .192.064m-14.4-25.792v-.064q.128-.127.32-.256a.62.62 0 0 0 .256-.32h.128q.32-.128.384-.064.128.064.128.512 0 .192-.32.192-.129 0-.256.128a.7.7 0 0 1-.32.064q-.32.127-.32-.192m13.312 19.904q.128 0 .128.064t.064.064q.575.448.896.448.128 0 .128.128l.192.192-.192.192h-.064q-.064-.064-.064-.192-.256 0-.256-.32h-.192q-.192.32 0 .32 0 .127.064.256a.8.8 0 0 1 .128.192q.192 0 .192.192.063 0 0 .128v.064q-.129-.128-.192-.128l-.064-.064q-.385-.32-.385-.64 0-.127-.127-.256a.73.73 0 0 0-.256-.256q0-.128-.064-.128-.064-.064-.064-.128h.064q.063-.064.064-.128m2.24 8.128q0-.32.064-.64.063-.385.064-.64.192.449.064.768a2.5 2.5 0 0 1-.192.512m-13.12-27.072h-.448v-.064q.063-.128.192-.128.192 0 .256.128zm-5.632 3.712v.64h-.064q0-.127-.128-.256-.065-.192.192-.384m12.992 12.352q.128 0 .128-.064.063-.064.128-.064l.064.064q.063.064.064.128h-.192zm-7.36.064q.063.128.256.192.192 0 .256.128v.256q0 .064-.064.128h-.064q-.32 0-.32-.128a.5.5 0 0 0-.064-.192q-.065-.127 0-.384m30.667 34.496a.43.43 0 0 0 .192-.192l.256-.128q-.321-.512-.768-.448h-1.408a1.3 1.3 0 0 0-.576 0 .72.72 0 0 1-.512-.064.8.8 0 0 0-.192-.128.56.56 0 0 1-.256-.064l-.32-.064q-.64.127-1.152-.192.384-.064.768-.064h.896q.255-.064.448-.128.192-.064.192-.448h.96l.384-.128a6 6 0 0 1 .448-.128q.32 0 .256-.448h-.512a.8.8 0 0 1-.448-.32h-.192q-.129 0-.192.128a.87.87 0 0 1-.64.256 3.2 3.2 0 0 0-.64-.064.6.6 0 0 0-.384 0h-.384a5 5 0 0 1-.64.256q-.32 0-.448-.064-.192-.256-.64-.064-.256-.384-.384-.448-.064-.065-.448 0-.576.192-1.088.128-.129-.128-.384-.064l-.384.128q.127.257.448.192.384-.065.384.384h-.064q0 .064-.064.064a13 13 0 0 0-1.344-.064h-1.344l-.768-.128a3.5 3.5 0 0 0-.704-.192q-.065 0-.128-.064 0-.064-.064-.064-.449-.32-.704-.32-.192 0-.576.256a8 8 0 0 1-1.408-.896 29 29 0 0 0-1.281-1.088 2 2 0 0 1-.256-.32.62.62 0 0 0-.32-.256q-.255-.192-.256-.448a1.06 1.06 0 0 1 0-.512q.129-.257-.192-.384-.384-.32-.512-.704a8 8 0 0 1-.32-.896 2.3 2.3 0 0 0-.128-.32 1.6 1.6 0 0 1-.192-.384v-.576q0-.384.448-.128.513.064.96.448.385.32.832.704.192.065.192.576.065.448.576.64.129 0 .321.192.768.511 1.6.576.576.128 1.152.32.576.127 1.152.192.32.064.576.256.255.128.576.064l-.576.512q.192.384.512.384.32-.064.64-.064a2 2 0 0 0-.064.512q0 .256-.128.512-.065.384-.576.256-.192-.128-.32-.064h-.32q-.449 0-.576-.128-.705-.192-1.28.128l.064.064q.32.065.64.192.32.064.64.064h.576q.832.384 1.792.192a4.5 4.5 0 0 1 1.088-.128q.576-.064 1.216-.128.192 0 .384.064.192 0 .384.192 0 .128.32.128l.064-.064a.6.6 0 0 0 .064-.256v-.192q1.344 0 2.752-.384.32-.128.576-.32.32-.256.576-.448-.129-.64-.256-.64-.129 0-.576.32-.449-.64-1.28-.256a3.9 3.9 0 0 1-1.088.32h-.448a1.2 1.2 0 0 0-.384-.064q-.065-.32.256-.448.32-.192 0-.512.191-.127.32-.192a6 6 0 0 1 .448-.128h.512a.8.8 0 0 0 .576-.256q-.384-.32-.768-.128a.88.88 0 0 1-.64.128.87.87 0 0 0-.256-.64q.383-.128.704-.128l.64-.128q.704-.192 1.472-.384a26 26 0 0 0 1.664-.576q.96-.192 1.472-.896l.383-.256q.77-.065.577-.768 0-.448.384-.64.512-.32.96-.704t.96-.64q.32-.192.448-.512.127-.384.192-.64.128-.256.128-.704a4 4 0 0 1-.448-.192q-.192-.192-.512-.064-.321 0-.768-.32a30 30 0 0 1-1.216-.768 61 61 0 0 1-1.216-.832l-.512-.256a8 8 0 0 0-.576-.256 7 7 0 0 1-1.984-1.6 10 10 0 0 1-1.792-1.536 3.3 3.3 0 0 0-.64-.704 4.6 4.6 0 0 0-.64-.64l-.256-.256-.256-.384-.64-1.024a3.8 3.8 0 0 0-.832-1.024 1.6 1.6 0 0 1-.192-.384q-.065-.192.064-.448-.448-.128-.64-.448a4 4 0 0 0-.384-.64 1.6 1.6 0 0 0-.192-.384 1.6 1.6 0 0 0-.192-.384q-.384-.384-.192-.768.063.128.128.32.127.127.192.256.32 0 .576.128 0-.192-.064-.384v-.384q-.064-.192-.064-.704v-.832l.128-1.28.128-1.408q.063-.383.192-.704.127-.32.192-.704.256-.64.511-1.216.256-.576.513-1.216l.576-.896q.127-.192.256-.32a.95.95 0 0 0 .256-.448q.063-.192.192-.384l.32-.32q.383-.32.704-.576.384-.256.768-.576a.7.7 0 0 1 .384-.128q.255-.064.448.128-.768.576-.96 1.408l.064.128q.127-.128.256-.128.127 0 .192-.064l.256-.256a1.6 1.6 0 0 0 .192-.384q.128 0 .128-.064l.064-.064q.255 0 .32-.064.384-.192.704-.384l.768-.512-.128-.128q-.385 0-.448-.064-.065-.064-.128-.448a1 1 0 0 0-.192-.256 1.6 1.6 0 0 0-.192-.384l.32-.32q-.768-.576.064-1.024a.48.48 0 0 0-.512-.192q-.192.127-.32.256a.8.8 0 0 1-.32.192q-.065.064-.192.064-.129 0-.256.128.128-.384.32-.512.384-.448.832-.896t.896-.704a8 8 0 0 1 1.024-.768l1.152-.768q.32-.255.64-.448.32-.255.576-.512.255-.192.512-.448l.576-.576q0-.064.064-.064a.8.8 0 0 0 .127-.192 6.3 6.3 0 0 0-.959.32 2.4 2.4 0 0 1-.961.192q.129-.32.321-.448l1.088-.384q.256-.128.448-.192a6 6 0 0 1 .448-.128q.512-.127 1.088-.256a6 6 0 0 1 1.024-.256q.192-.128.384-.192l.384-.256q.447-.255.832 0 .32.192.576.384a.78.78 0 0 1 .448.448q1.216.192 1.984 1.344v.064h.064l1.024 1.024q.447.705 1.024 1.408.383.512.512 1.088.192.576.384 1.088.447 1.025 0 2.112 0 .127-.064.256 0 .127.064.256 0 .32.064.512.063.192-.192.512-.064.064-.064.256.063.192.064.32h-.64q-.576.064-.192.576.255.448-.192.576-.256.064-.256.448 0 .192-.128.448a6 6 0 0 0-.128.448 2.3 2.3 0 0 0-.192-.64l-.128-.512q0-.128-.128-.128l-.128-.128-.256.384-.128.896-.128.896-.128 1.28q0 .64-.448 1.216a.87.87 0 0 1-.256-.64 1.6 1.6 0 0 0-.064-.768q-.192.256-.32.576-.129.255-.32.448-.129.192-.32.448-.192.256-.576.384a4.3 4.3 0 0 1-.064-.704q0-.385-.128-.64 0-.512-.192-.704a.7.7 0 0 1-.128-.192q0-.128-.064-.192 0-.32-.064-.576-.192.065-.448.32 0-.064-.064-.128v-.256a.7.7 0 0 0 .064-.32q-.192.128-.512.128.255-.384.32-.768.127-.384-.128-.832a.7.7 0 0 0-.128.192.5.5 0 0 0-.064.192h-.064a2 2 0 0 1-.064-.512q0-.256-.128-.576h-.448a1 1 0 0 0-.448.128q-1.28.192-2.177.576a6.7 6.7 0 0 0-2.175 1.152l-.448.448a2.7 2.7 0 0 1-.512.384 2.4 2.4 0 0 0-.576.704q-.192.383-.512.704a7 7 0 0 1-.64 1.024l-.64 1.024q-.384.449-.512.384-.065-.064-.192.512-.065.255.064.64.127.384.192.768.32.64.576 1.344.32.64.768 1.28l1.536 1.792q.831.833 1.728 1.536l1.28 1.024q.703.448 1.344.96.64.384 1.216.768l1.28.768 2.496 1.664q.127.064.384.448.128.256.32.448l.512.384a4.2 4.2 0 0 1 1.28.96q.576.576 1.024 1.28.384.576.576 1.216.255.64.704 1.152.063.064 0 .256 0 .192.064.384.127 0 .192.064a.7.7 0 0 0 .32.064q0 .257-.064.768 0 .512-.256 1.856a1 1 0 0 0-.256.192 1 1 0 0 0-.256.192q0 .448.064.704-.257.064-.32-.064 0-.127-.128-.192-.128-.256-.32-.256-.513.127-.384.384.063.192-.064.256l-.192.192q-.705.448-1.344 1.408-.192.448-.576.768-.32.256-.704.576a.7.7 0 0 1-.256.128.7.7 0 0 1-.32.064q-.769-.192-1.024.448 0 .384-.384.512-.192 0-.192.256a.95.95 0 0 1-.256.448.8.8 0 0 1-.192.128q-.065 0-.192.128h-.128q-.448.384-.96-.128-.256.064-.448.064a2.5 2.5 0 0 0-.32.128 7 7 0 0 0-.576.256 3.4 3.4 0 0 1-.512.32l-.128.128q-.065.128-.128.128-.32-.064-.512.064a.62.62 0 0 1-.321.256.7.7 0 0 1-.383.128h-.384a.8.8 0 0 1-.576.256 13 13 0 0 1-.577.128l-.383.128-.384.128-.64.128a1.7 1.7 0 0 1-.64.128m-13.184-5.184q.255.128.32-.064-.32-.512-1.024-.448 0 .32.256.384.255.064.448.128m4.16-.448q.256-.128.64-.064-.385 0-.64.064m3.52-1.344v-.128h.448v.064a.56.56 0 0 0-.256.064zm8.704 6.08q.127-.127.256-.192.192 0 .192-.256-.32-.128-.448-.128-.065.064-.32.448.255 0 .32.128m-3.776-3.712.768-.128q.447-.064.832-.32.192 0 .192-.192 0-.127-.128-.192a.8.8 0 0 0-.128-.192.56.56 0 0 0-.256.064.6.6 0 0 1-.256.064.56.56 0 0 0-.256.064h-.192q-.449-.064-.576.128-.065.128 0 .704m9.28 2.176a1.7 1.7 0 0 1-.064-.512q0 .127.128.192.128.064-.064.32m.704 0q0-.64.576-.64.063 0 .064.064a.7.7 0 0 1-.256.256 2.5 2.5 0 0 0-.384.32m-18.688-27.328q-.192-.32-.128-.64.128-.32.128-.704.192.32.192.576.063.255.064.512 0 .064-.128.128zm1.6-5.056a.8.8 0 0 0-.128-.192l-.128-.256.384-.256q.192-.127.448-.256a7 7 0 0 1-.256.832q0 .064-.128.128zm1.344-1.856q-.257-.769.576-.832-.065.448-.576.832m4.672-2.496-.064-.192q0-.064.192-.064v.064h.064zm2.496-1.28q.32-.128.576-.192.255-.128.384-.512-.448-.128-.576.064a12 12 0 0 1-.384.64m-.576-.512q.447-.064.768-.512.255-.384.704-.064.128.128.319.192.193.065.385.192.32-.255.576-.512.32-.32.704-.384.384-.128.384-.512.192-.192.192-.576a.42.42 0 0 0-.192-.192l-.129-.256q.32-.512.641-.256.383.192.704.192l.128-.384q.063-.192.192-.448h-.32a.27.27 0 0 0-.256 0 3.6 3.6 0 0 0-.64.192l-.64.128a.8.8 0 0 0-.384.192q-.129.128-.128.512.384.255.384.448.063.128-.256.448a1.5 1.5 0 0 1-.256-.384l-.704.704q-.192-.191-.576-.128-.321.064-.384-.448a3.6 3.6 0 0 0-1.024.384 1.8 1.8 0 0 0-.768.64q-.065.127-.192.256l-.192.192q.447.255.704-.128.127-.065.256-.192.192-.128.384-.192.192.32-.128.32-.385.065-.256.576m4.096-1.28h.384q-.128-.064-.128-.128-.064.064-.256.064zm-3.712-4.16q.32-.448.384-.448.127-.064.448.128a1.6 1.6 0 0 0-.384.192 6 6 0 0 1-.448.128m52.722 49.664a9 9 0 0 1-.448-.896 3.6 3.6 0 0 1-.256-.896q-.064-.511-.32-.768a4 4 0 0 0-.448-.384q-.448-.127-.256-.384a4.4 4.4 0 0 1-.896-.32q-.384-.192-.704-.832a5.7 5.7 0 0 0-.448-1.024 6.3 6.3 0 0 1-.32-.96l-.256-.384a.8.8 0 0 1-.192.128l-.128.128a3.7 3.7 0 0 0-.448.512.8.8 0 0 0-.128.192.6.6 0 0 1-.064.256h-.128q-.065-.064-.192-.064l-.256.512a6 6 0 0 1-.384.64q-.064.065-.064.192-.448.128-.576.896.065.127 0 .384-.064.256-.064.448-.192.576-.32.64-.064.065-.32-.384a.6.6 0 0 1-.064-.256q0-.128-.128-.32a.6.6 0 0 0 .256-.064q.192 0 .384.192l.064.064-.064-.064q0-.064-.064-.128v-.768q.256 0 .256-.576.064-.32.064-.704.064-.384.32-.64.064.064.128.064a.8.8 0 0 1 .128.192q.512-.448.064-1.216l-.192-.64q.128.128.256.128a.6.6 0 0 1-.064-.256q0-.128-.128-.32l-.128-.512a1.3 1.3 0 0 1 0-.576v-.256a1.5 1.5 0 0 0-.32-.512.8.8 0 0 1-.128-.448h-.256v.064a6 6 0 0 0-.128-.448 1.14 1.14 0 0 0-.128-.512l-.064-.32a6 6 0 0 0-.128-.448q0-.192-.064-.384a5 5 0 0 1-.192-.576 10 10 0 0 0-.192-.768 4.8 4.8 0 0 0-.192-.896 30 30 0 0 1-.256-.96 3 3 0 0 1-.256.512 1.6 1.6 0 0 0-.192-.384 4 4 0 0 0-.192-.448q-.064.257-.128.576-.065.256-.384.256.064.192.064.384v.32q-.384-.384-.384-.512 0 .064-.128.064a.8.8 0 0 1 .128.448q0 .192.064.384.064-.192.32-.384V112q-.256.449-.384 0h-.192a79 79 0 0 1-.256-1.344 16 16 0 0 0-.192-1.408h-.064l-.192 1.024q-.192-.128-.256-.448v-.576a9 9 0 0 0-.512-2.048l-.256-.512a1.2 1.2 0 0 1-.064-.384q0-.256-.064-.448l.32.192q-.064-.704-.256-.896-.128-.257-.704-.192a.61.61 0 0 0 .192-.448q.064-.32.384-.576v-.128q0-.192-.064-.192a4 4 0 0 1-.448-.384q-.192-.192-.512-.064a6.5 6.5 0 0 1-1.024.064q-.576-.064-2.112.192-.064.064-.256.064a.6.6 0 0 0-.256-.064q-1.984.064-3.264.256-1.216.128-2.24.256v.384q0 .192-.32.256-.064 0-.128.192l-.064.192q0 .512.576.32.065 0 .192.128l.384.192a.44.44 0 0 0 .32-.128q.192-.192.448.064.256-.256.32-.512.448.128.512.64-.768.064-1.6.256-.768.128-1.6.256v.768q-.256.064-.384.384a4 4 0 0 1-.384.704 2.5 2.5 0 0 1-.192.512 1.7 1.7 0 0 1-.256.448q0 .064-.064.064v.128a21 21 0 0 1-.576 1.728 9.5 9.5 0 0 0-.384 1.664 82 82 0 0 1-.576 2.752q-.32 1.408-.704 2.944-.065.064 0 .256 0 .64-.192 1.152t-.384 1.152q0 .064-.192.256a3 3 0 0 1-.384.448 7 7 0 0 0-.384.576.7.7 0 0 1-.32-.064h-.256q-.32-.576-.128-1.152l.576-3.456a2.2 2.2 0 0 1-.576.512q-.256.192-.32.704a.6.6 0 0 1-.064.256q0 .128.128.32.065.384-.192.448-.384-.576-.896-.384-.64 0-.64-.64a.5.5 0 0 1-.064-.192q0-.064-.128-.192a.57.57 0 0 0-.32.384 5 5 0 0 1-.192.576q-.256.64-.448 1.344a71 71 0 0 1-.384 1.472h-.064q-.064 0-.128.128a5.2 5.2 0 0 0-.448-1.088q-.192-.384-.768-.256.128-.96.256-1.408.127-.32.192-.64.064-.384.128-.64.256-1.152.576-2.368.384-1.28.704-2.432.192-.64.448-1.216.256-.64.32-1.216a6 6 0 0 1 .576-1.6q.128-.32-.128-.64v-.256q.064-.064.128-.064.32-.064.384-.128t.064-.448.192-.512q.064 0 .256-.192.32-.576.512-1.088t.448-1.088q0-.128-.064-.32t-.32-.256a2 2 0 0 0-.32-.256q-.192-.128-.512-.128-.832.257-1.792.384-.96.064-1.792.064a2.4 2.4 0 0 1-.576.064h-.576q-.064-.064-.128-.064a.8.8 0 0 1-.128-.192q.32-.128.768-.448t.832-.384a18 18 0 0 0 1.6-.32 90 90 0 0 0 1.6-.384q.64-.32 1.152-.384l1.152-.256.384-.128q.192-.064.256-.32.256-.768.704-1.408.512-.705.832-1.408.128-.064.128-.128v-.128q.064-.512.256-.832t.384-.576q.256-.704.704-1.472a51 51 0 0 0 1.984-3.392q.32-.448.512-.832.192-.448.448-.896v-.384a.72.72 0 0 1 .064-.512q.127-.255.192-.448.449-.832.96-1.728.512-.896.96-1.792l.384-.768q.32-.512 1.6-2.624.128-.128.064-.512a25 25 0 0 1-.64-1.088 42 42 0 0 0-.704-1.344q-.064-.127-.448-.256-.32-.384-.768-.064l-.256.128q-.128 0-.256.128a13 13 0 0 1 .256-.704q.192-.384.064-.832.256-.064.576-.064.704-.192.192-.896.511 0 .768-.32l.512-.64h.576V75.2l.448-.064q.896-.192 1.28-.768a.7.7 0 0 1 .128-.256l.128-.128q.128.065.32.192.257.128.576-.064.128-.064.256.064l.256.256q.192.192.576.128a.7.7 0 0 1-.064-.32 1 1 0 0 0 .064-.256.43.43 0 0 0-.32-.128.7.7 0 0 1-.32-.064q-.064-.192-.064-.576a10 10 0 0 1 .512-.192.8.8 0 0 0 .32-.192.27.27 0 0 1 .256 0h.192q.576.255.704.32.192 0 .576-.256.32.127.32.384l.256-.64q.257-.255.384-.448v.192a.8.8 0 0 1 .128.192l.128.256q.128.704.448 1.152.32.449.768.768.64.448.832 1.088.064.256.128.576.064.255.064.448.128 1.087.32 2.688.256 1.6 1.472 2.816 0 .255.064.32.192.32.192.64 0 .255.064.512.064.895.064 1.728.065.768.192 1.664v.832q.128.832.128 1.728.064.895.128 1.728.128.384.064.832v.832h-.32q.064.384.064.832.064.384.064.832 0 .384.064.768.064.383.128.704.064.255.064.64.065.32.192.64 0 .32.064.768.064.384.128.832.065.449.192.96.127.448.192.896v.96q.127.192.192.512.127.256.192.448.127.448.192 1.024l.128 1.024q.128.703.256 1.344.192.576.256 1.28.127.448.192.896.064.384.32.896l.192.64q-.127.127 0 .768a.7.7 0 0 1 .128.384q.064.192.448.064l.64 1.92q.384.96.768 1.856.256.64.448 1.28.256.64.512 1.216a.7.7 0 0 1 .128.256q.127.128.192.256.32.384.192 1.152-.065 0-.192-.192-.065-.256-.192-.064-.064.064-.064.256.064.192.064.32a1.4 1.4 0 0 0-.064.448q.064.256-.064.64l-.192.064a.39.39 0 0 0-.256.256q-.064.064.064.512.127.768.576 1.344.32.64.64 1.344t.704 1.408h-1.856m-34.24-5.504q0-.064-.064-.128v-.064h.128v.192zm3.776-1.792q.256-.448.064-.896a6 6 0 0 0-.128.448.44.44 0 0 1-.128.32q.127 0 .192.128m-2.112-2.304h.128q.064 0 .064-.064.512-1.088.832-2.048.384-1.024.832-2.048.256-.832.64-1.664t.704-1.6a.6.6 0 0 0 .064-.256q0-.127-.192-.384-.128.32-.32.384-.257.64-.576 1.344-.32.64-.576 1.344a80 80 0 0 1-.832 2.368 47 47 0 0 0-.704 2.304q-.064.064-.064.32m3.52-9.216h.192q.384-.192.256-.64l-.256-.064q-.384.256-.192.704m.512-1.024q0 .064.064 0l.128-.064q.127-.192.192-.448.127-.32 0-.704a1.1 1.1 0 0 0-.32.576q-.064.256-.128.576-.064 0-.064.064zm20.672 16.896h.064q-.064 0-.064-.064-.128-.128-.256-.448a.95.95 0 0 0-.256-.448q0-.064.128-.064.127.192.192.448.127.256.192.512zm.384-1.728a3.2 3.2 0 0 1-.384-.768q-.128-.384-.128-1.024.128.512.256.896zm-1.408-1.984q-.256-.064-.256-.256.064-.257-.064-.384.256.064.256.256 0 .127.064.384m-.704-.96a.8.8 0 0 0-.192-.384l-.128-.384q.256.257.32.768m-.384-2.56a.7.7 0 0 1-.064-.32l.064-.064q0 .127.064.384zm3.52 2.944q-.128-.128-.128-.256.064.064.064.128t.064.128m-2.752-2.816-.064-.448v-.192a.7.7 0 0 0-.064-.32q.192.449.128.96m-1.408-1.536q-.064-.127-.064-.576.128.448.256.512zm1.088.512a.8.8 0 0 0-.128-.192.6.6 0 0 0-.064-.256q.064-.064.064-.128 0 .128.064.32l.128.256zm2.88 3.392a1 1 0 0 0-.192-.256.8.8 0 0 0-.128-.192l-.192-1.152v-.32a.7.7 0 0 0-.064-.32v.384a.6.6 0 0 1 .064.256q.128.448.256.832.128.32.256.768m-3.584-4.352-.256-.512a1.03 1.03 0 0 1 0-.512 6 6 0 0 1 .128.448q.128.192.128.576m1.28.32a6 6 0 0 1-.384-.576q0-.192.192-.448.32.384.192 1.024m3.52 3.584q.127-.512 0-.704-.256-.192-.32-.32 0-.128-.064-.64-.128-.128-.128-.256-.064.448.064 1.024t.448.896m-4.608-5.44.064-.064h-.064zm-.896-.512v-.768q.257.449 0 .768m5.824 5.056q.128-.384.064-.448 0-.128-.256-.32.064.192.064.32.064.128.128.448m-1.92-2.176q.128-.896-.256-.832l-.128.192q.128.064.128.256.064.127.256.384m-1.6-2.048v-.512.256q0 .128.064.256zm3.2 2.432q.128-.192-.064-.32-.192-.192-.128-.384v-.896q-.449 1.088.192 1.6m-8.064-9.536-.064-.064-.064-.128v-.064q.064.064.128.064zm7.616 7.424v-.064q0-.064.064-.064-.128-.256-.128-.32 0 .32.064.448m-.384-2.624h.064a1 1 0 0 1-.064-.32q0-.192-.064-.448h-.064q.064.256.064.448 0 .128.064.32m5.568 6.144.064-.192q-.064-.064-.064-.256l-.128.128q0 .064.064.128t.064.192m-.448-1.472h.128q0-.128-.128-.256h-.064a.6.6 0 0 1 .064.256m-.832-1.856q.192 0 .192-.192 0-.128-.192-.32zm-19.584-12.48q.256.257.448 0 .192-.256.448-.512-.128.576.128.576.256-.064.384-.064a70 70 0 0 1 2.432-.192 24 24 0 0 0 2.368-.256h2.048a2 2 0 0 1-.064-.448q.064-.255.064-.512v-.704l-.256-1.664a.6.6 0 0 0-.064-.256q-.064-.192.256-.256.256-.064.256-.384 0-.384-.256-.448-.448-.127-.512-.384v-.64a23 23 0 0 1-.384-4.16v-4.096q-.064-.448-.064-1.28-.448.256-.64.576-.128.256-.256.576-.256.704-.576 1.344a11 11 0 0 1-.576 1.216q-.448 1.215-.896 2.368-.384 1.087-.896 2.176-.576 1.215-1.088 2.432-.448 1.215-1.344 1.984-.064 0-.064.128 0 .768-.32 1.28-.32.449-.448 1.152l-.128.256zm16.704.896v-.192a.6.6 0 0 0 .064-.256 9 9 0 0 0-.32-1.024 8 8 0 0 1-.192-1.088.94.94 0 0 0-.192-.576q-.128-.32-.064-.576.064-.32-.064-.512a2.5 2.5 0 0 0-.192-.512.6.6 0 0 1-.064-.256.44.44 0 0 0-.128-.32l-.32-2.24q0-.384-.192-.832-.064-.512-.256-.832a17 17 0 0 0-.448-.832q-.192.383-.128.704.128.256.128.576 0 .255.128.448a.7.7 0 0 1 .128.384v1.024q0 .512.256 1.088v.128q.128.448.128.832.064.384.256.896.064.32.128.768.128.448.448.896.127.256.192.576.128.32.256.576.128.257.128.576.064.257.32.576m-2.496-10.944h.128a4 4 0 0 0-.128-.512v-.448h-.064v.448q0 .192.064.512M393.648 183.568a9 9 0 0 1-.448-.896 3.6 3.6 0 0 1-.256-.896q-.064-.512-.32-.768a4 4 0 0 0-.448-.384q-.448-.128-.256-.384a4.4 4.4 0 0 1-.896-.32q-.384-.192-.704-.832a5.7 5.7 0 0 0-.448-1.024 6.3 6.3 0 0 1-.32-.96l-.256-.384a.8.8 0 0 1-.192.128l-.128.128a3.7 3.7 0 0 0-.448.512.8.8 0 0 0-.128.192.6.6 0 0 1-.064.256h-.128q-.065-.064-.192-.064l-.256.512a6 6 0 0 1-.384.64q-.064.065-.064.192-.448.128-.576.896.065.127 0 .384-.064.256-.064.448-.192.576-.32.64-.064.065-.32-.384a.6.6 0 0 1-.064-.256q0-.128-.128-.32a.6.6 0 0 0 .256-.064q.192 0 .384.192l.064.064-.064-.064q0-.064-.064-.128v-.768q.256 0 .256-.576.064-.32.064-.704.064-.384.32-.64.064.064.128.064a.8.8 0 0 1 .128.192q.512-.448.064-1.216l-.192-.64q.128.128.256.128a.6.6 0 0 1-.064-.256q0-.128-.128-.32l-.128-.512a1.3 1.3 0 0 1 0-.576v-.256a1.5 1.5 0 0 0-.32-.512.8.8 0 0 1-.128-.448h-.256v.064a6 6 0 0 0-.128-.448 1.14 1.14 0 0 0-.128-.512l-.064-.32a6 6 0 0 0-.128-.448q0-.192-.064-.384a5 5 0 0 1-.192-.576 10 10 0 0 0-.192-.768 4.8 4.8 0 0 0-.192-.896 30 30 0 0 1-.256-.96 3 3 0 0 1-.256.512 1.6 1.6 0 0 0-.192-.384 4 4 0 0 0-.192-.448q-.064.256-.128.576-.065.256-.384.256.064.192.064.384v.32q-.384-.384-.384-.512 0 .064-.128.064a.8.8 0 0 1 .128.448q0 .192.064.384.064-.192.32-.384V170q-.256.449-.384 0h-.192a79 79 0 0 1-.256-1.344 16 16 0 0 0-.192-1.408h-.064l-.192 1.024q-.192-.128-.256-.448v-.576a9 9 0 0 0-.512-2.048l-.256-.512a1.2 1.2 0 0 1-.064-.384q0-.256-.064-.448l.32.192q-.064-.704-.256-.896-.128-.257-.704-.192a.61.61 0 0 0 .192-.448q.064-.32.384-.576v-.128q0-.192-.064-.192a4 4 0 0 1-.448-.384q-.192-.192-.512-.064a6.5 6.5 0 0 1-1.024.064q-.576-.065-2.112.192-.064.064-.256.064a.6.6 0 0 0-.256-.064q-1.984.064-3.264.256-1.216.128-2.24.256v.384q0 .192-.32.256-.064 0-.128.192l-.064.192q0 .512.576.32.065 0 .192.128l.384.192a.44.44 0 0 0 .32-.128q.192-.192.448.064.256-.256.32-.512.448.128.512.64-.768.064-1.6.256-.768.128-1.6.256v.768q-.256.065-.384.384a4 4 0 0 1-.384.704 2.5 2.5 0 0 1-.192.512 1.7 1.7 0 0 1-.256.448q0 .064-.064.064v.128a21 21 0 0 1-.576 1.728 9.5 9.5 0 0 0-.384 1.664 82 82 0 0 1-.576 2.752q-.32 1.408-.704 2.944-.065.064 0 .256 0 .64-.192 1.152t-.384 1.152q0 .064-.192.256a3 3 0 0 1-.384.448 7 7 0 0 0-.384.576.7.7 0 0 1-.32-.064h-.256q-.32-.576-.128-1.152l.576-3.456a2.2 2.2 0 0 1-.576.512q-.256.192-.32.704a.6.6 0 0 1-.064.256q0 .128.128.32.065.384-.192.448-.384-.576-.896-.384-.64 0-.64-.64a.5.5 0 0 1-.064-.192q0-.065-.128-.192a.57.57 0 0 0-.32.384 5 5 0 0 1-.192.576q-.256.64-.448 1.344a71 71 0 0 1-.384 1.472h-.064q-.064 0-.128.128a5.2 5.2 0 0 0-.448-1.088q-.192-.384-.768-.256.128-.96.256-1.408.127-.32.192-.64.064-.384.128-.64.256-1.152.576-2.368.384-1.28.704-2.432.192-.64.448-1.216.256-.64.32-1.216a6 6 0 0 1 .576-1.6q.128-.32-.128-.64v-.256q.064-.064.128-.064.32-.064.384-.128t.064-.448.192-.512q.064 0 .256-.192.32-.576.512-1.088t.448-1.088q0-.128-.064-.32t-.32-.256a2 2 0 0 0-.32-.256q-.192-.128-.512-.128-.832.256-1.792.384-.96.064-1.792.064a2.4 2.4 0 0 1-.576.064h-.576q-.064-.064-.128-.064a.8.8 0 0 1-.128-.192q.32-.128.768-.448t.832-.384a18 18 0 0 0 1.6-.32 90 90 0 0 0 1.6-.384q.64-.32 1.152-.384l1.152-.256.384-.128q.192-.064.256-.32.256-.768.704-1.408.512-.704.832-1.408.128-.064.128-.128v-.128q.064-.512.256-.832t.384-.576q.256-.704.704-1.472a51 51 0 0 0 1.984-3.392q.32-.448.512-.832.192-.448.448-.896v-.384a.72.72 0 0 1 .064-.512q.127-.256.192-.448a80 80 0 0 1 .96-1.728q.512-.896.96-1.792l.384-.768q.32-.512 1.6-2.624.128-.128.064-.512a24 24 0 0 1-.64-1.088 41 41 0 0 0-.704-1.344q-.064-.128-.448-.256-.32-.384-.768-.064l-.256.128q-.128 0-.256.128.128-.384.256-.704.192-.384.064-.832.256-.064.576-.064.704-.192.192-.896.511 0 .768-.32l.512-.64h.576v-.5760000000000001l.448-.064q.896-.192 1.28-.768a.7.7 0 0 1 .128-.256l.128-.128q.128.064.32.192.257.128.576-.064.128-.064.256.064l.256.256q.192.192.576.128a.7.7 0 0 1-.064-.32q.064-.192.064-.256a.44.44 0 0 0-.32-.128.7.7 0 0 1-.32-.064q-.064-.192-.064-.576.32-.127.512-.192a.8.8 0 0 0 .32-.192.27.27 0 0 1 .256 0h.192q.576.256.704.32.192 0 .576-.256.32.128.32.384l.256-.64q.257-.256.384-.448v.192a.8.8 0 0 1 .128.192l.128.256q.128.704.448 1.152t.768.768q.64.448.832 1.088.064.256.128.576.064.256.064.448.128 1.088.32 2.688.256 1.6 1.472 2.816 0 .256.064.32.192.32.192.64 0 .256.064.512.064.895.064 1.728.065.768.192 1.664v.832q.128.833.128 1.728.064.895.128 1.728.128.384.064.832v.832h-.32q.064.384.064.832.064.384.064.832 0 .384.064.768t.128.704q.064.256.064.64.065.32.192.64 0 .32.064.768.064.384.128.832.065.449.192.96.127.448.192.896v.96q.127.192.192.512.127.256.192.448.127.448.192 1.024l.128 1.024q.128.703.256 1.344.192.576.256 1.28.127.448.192.896.064.384.32.896l.192.64q-.127.128 0 .768a.7.7 0 0 1 .128.384q.064.192.448.064l.64 1.92q.384.96.768 1.856.256.64.448 1.28.256.64.512 1.216a.7.7 0 0 1 .128.256q.127.128.192.256.32.384.192 1.152-.065 0-.192-.192-.065-.256-.192-.064-.064.064-.064.256.064.192.064.32a1.4 1.4 0 0 0-.064.448q.064.256-.064.64l-.192.064a.39.39 0 0 0-.256.256q-.064.064.064.512.127.768.576 1.344.32.64.64 1.344t.704 1.408h-1.856m-34.24-5.504q0-.064-.064-.128v-.064h.128v.192zm3.776-1.792q.256-.448.064-.896a6 6 0 0 0-.128.448.44.44 0 0 1-.128.32q.127 0 .192.128m-2.112-2.304h.128q.064 0 .064-.064.512-1.088.832-2.048.384-1.024.832-2.048.256-.832.64-1.664t.704-1.6a.6.6 0 0 0 .064-.256q0-.127-.192-.384-.128.32-.32.384-.257.64-.576 1.344-.32.64-.576 1.344a80 80 0 0 1-.832 2.368 47 47 0 0 0-.704 2.304q-.064.064-.064.32m3.52-9.216h.192q.384-.192.256-.64l-.256-.064q-.384.256-.192.704m.512-1.024q0 .065.064 0l.128-.064q.127-.192.192-.448.127-.32 0-.704a1.1 1.1 0 0 0-.32.576q-.064.256-.128.576-.064 0-.064.064zm20.672 16.896h.064q-.064 0-.064-.064-.128-.128-.256-.448a.95.95 0 0 0-.256-.448q0-.064.128-.064.127.192.192.448.127.256.192.512zm.384-1.728a3.2 3.2 0 0 1-.384-.768q-.128-.384-.128-1.024.128.512.256.896zm-1.408-1.984q-.256-.064-.256-.256.064-.257-.064-.384.256.064.256.256 0 .127.064.384m-.704-.96a.8.8 0 0 0-.192-.384l-.128-.384q.256.256.32.768m-.384-2.56a.7.7 0 0 1-.064-.32l.064-.064q0 .127.064.384zm3.52 2.944q-.128-.128-.128-.256.064.064.064.128t.064.128m-2.752-2.816-.064-.448v-.192a.7.7 0 0 0-.064-.32q.192.449.128.96m-1.408-1.536q-.064-.127-.064-.576.128.448.256.512zm1.088.512a.8.8 0 0 0-.128-.192.6.6 0 0 0-.064-.256q.064-.064.064-.128 0 .128.064.32l.128.256zm2.88 3.392a1 1 0 0 0-.192-.256.8.8 0 0 0-.128-.192l-.192-1.152v-.32a.7.7 0 0 0-.064-.32v.384a.6.6 0 0 1 .064.256q.128.448.256.832.128.32.256.768m-3.584-4.352-.256-.512a1.03 1.03 0 0 1 0-.512 6 6 0 0 1 .128.448q.128.192.128.576m1.28.32a6 6 0 0 1-.384-.576q0-.192.192-.448.32.384.192 1.024m3.52 3.584q.127-.512 0-.704-.256-.192-.32-.32 0-.128-.064-.64-.128-.128-.128-.256-.064.448.064 1.024t.448.896M383.6 170l.064-.064h-.064zm-.896-.512v-.768q.257.448 0 .768m5.824 5.056q.128-.384.064-.448 0-.128-.256-.32.064.192.064.32.064.128.128.448m-1.92-2.176q.128-.896-.256-.832l-.128.192q.128.064.128.256.064.128.256.384m-1.6-2.048v-.512.256q0 .128.064.256zm3.2 2.432q.128-.192-.064-.32-.192-.192-.128-.384v-.896q-.449 1.088.192 1.6m-8.064-9.536-.064-.064-.064-.128v-.064q.064.064.128.064zm7.616 7.424v-.064q0-.064.064-.064-.128-.256-.128-.32 0 .32.064.448m-.384-2.624h.064a1 1 0 0 1-.064-.32q0-.192-.064-.448h-.064q.064.256.064.448 0 .128.064.32m5.568 6.144.064-.192q-.064-.064-.064-.256l-.128.128q0 .064.064.128.064.065.064.192m-.448-1.472h.128q0-.128-.128-.256h-.064a.6.6 0 0 1 .064.256m-.832-1.856q.192 0 .192-.192 0-.128-.192-.32zm-19.584-12.48q.256.256.448 0t.448-.512q-.128.576.128.576.256-.064.384-.064a70 70 0 0 1 2.432-.192 24 24 0 0 0 2.368-.256h2.048a2 2 0 0 1-.064-.448q.064-.256.064-.512v-.704l-.256-1.664a.6.6 0 0 0-.064-.256q-.064-.192.256-.256.256-.064.256-.384 0-.384-.256-.448-.448-.128-.512-.384v-.64a23 23 0 0 1-.384-4.16v-4.096q-.064-.448-.064-1.28-.448.256-.64.576a8 8 0 0 0-.256.576q-.256.704-.576 1.344-.256.64-.576 1.216-.448 1.216-.896 2.368a24 24 0 0 1-.896 2.176 60 60 0 0 0-1.088 2.432q-.448 1.216-1.344 1.984-.064 0-.064.128 0 .768-.32 1.28-.32.448-.448 1.152l-.128.256zm16.704.896v-.192a.6.6 0 0 0 .064-.256 9 9 0 0 0-.32-1.024 8 8 0 0 1-.192-1.088.94.94 0 0 0-.192-.576q-.128-.32-.064-.576.064-.32-.064-.512a2.5 2.5 0 0 0-.192-.512.6.6 0 0 1-.064-.256.44.44 0 0 0-.128-.32l-.32-2.24q0-.384-.192-.832-.064-.512-.256-.832a17 17 0 0 0-.448-.832q-.192.384-.128.704.128.257.128.576 0 .256.128.448a.7.7 0 0 1 .128.384v1.024q0 .512.256 1.088v.128q.128.448.128.832.064.384.256.896.064.32.128.768.128.448.448.896.127.256.192.576.128.32.256.576.128.257.128.576.064.256.32.576m-2.496-10.944h.128a5 5 0 0 0-.128-.512v-.448h-.064v.448q0 .192.064.512m34.117 26.368q-.448.256-1.024-.32-.064-.192-.32-.448t-.704-.32q-.192 0-.32-.32l-.384-.448a3 3 0 0 0-.576-.448 7 7 0 0 1-.576-.512 7 7 0 0 1-.512-.576 3.7 3.7 0 0 0-.576-.576.41.41 0 0 1-.32-.32l-.384-.512a4 4 0 0 0-.32-.384.43.43 0 0 0-.192-.192.8.8 0 0 0-.128-.192 5 5 0 0 1-.448-.512 5 5 0 0 0-.448-.512 2.2 2.2 0 0 0-.512-.576 3.7 3.7 0 0 1-.576-.576 1 1 0 0 0-.192-.256l-.256-.256-.64-.64-.64-.768a3 3 0 0 0-.192-.32 1.5 1.5 0 0 0-.256-.384 78 78 0 0 1-.832-1.088 17 17 0 0 0-.896-1.088l-.256-.256a1 1 0 0 0-.256-.192q-.32-.448-.576.128v.96q0 .448-.064.832v.704q0 .384-.128.704-.384-.192-.384.256-.064.512.128 1.152a4.3 4.3 0 0 1 0 1.472q0 .384-.128.768a4.3 4.3 0 0 0-.064.704v.64q.064.32 0 .576v2.24q.064.256.064.512l.576.896q.128.064.128.192v.192a1.9 1.9 0 0 0-.128.704q.064.384.128.832 0 .256-.128.256-.32.256-.384.576a1.3 1.3 0 0 0 0 .576v.192q-.257-.128-.384-.064-.065 0-.192.448-.192-.192-.192-.256a.7.7 0 0 1-.256-.256.43.43 0 0 0-.192-.192q0-.256-.192-.256t-.192.064q-.256.384-.128.896.127.065.192.384 0 .512-.32.512a.5.5 0 0 0-.192.064.8.8 0 0 1-.128.192q0 .064-.704.128l-1.28.256q-.64.128-.64.256-.065.065-.192.384-.128.128-.128.512 0 .192-.128.256v-.064h-.064l-.32-.32a2 2 0 0 1-.256-.32 1.8 1.8 0 0 0-.448-.512q-.192-.128-.32-.448l-.384-.64a4.4 4.4 0 0 1-.32-.64 3.1 3.1 0 0 0-.512-.896q0-.064-.128-.128l-.064-.064a3.7 3.7 0 0 0-.192-.64 3.2 3.2 0 0 1-.064-.64 9 9 0 0 1-.064-1.088v-1.216a.39.39 0 0 1 .256-.256q.128.128.128.256.128.064.128.256l.128.256q.127 0 .192-.064v-.192a.5.5 0 0 0 .064-.192v-.896l.128-.768q0-.448.064-.512.128 0 .128-.256t-.128-.384q0-.32-.064-.384 0-.257.064-.384.128-.127.128-.576-.128-.127.128-.384l.064-.064q0-.064.064-.128v-.32q.064 0 .064-.064.064.064.064.256l.192.512.128.128q.064 0 .064-.128a3.4 3.4 0 0 0 .192-.704q.128-.384.128-.768a10 10 0 0 1-.064-1.152l.128-1.28v-.896q.064-.512.064-.96 0-.128-.064-.192a.8.8 0 0 0-.128-.192q0-.128-.064-.128t-.064-.064a1.14 1.14 0 0 0-.128-.512v-.256q0-.704-.448-.448a.6.6 0 0 1-.064-.256q0-.512-.128-.768-.192-.256.064-.384.064 0 .128-.064.128 0 .128-.192a.5.5 0 0 0-.064-.192q0-.128-.064-.128-.192 0-.192-.448 0-.32-.064-.384 0-.384-.256-.192 0 .128-.192.128a.6.6 0 0 1-.064-.256q0-.512-.128-.704-.127-.576.192-.576.064 0 .128.064l.064.064q0 .32.064.448 0 .32.128.448.128.448.256.192 0 .192.064.32.064.192.32.064.256-.257.256-.768a.54.54 0 0 1 .064-.448 1.6 1.6 0 0 0 .192-.384 2.3 2.3 0 0 0 .192-.576q0-.064-.064-.128a.5.5 0 0 1-.064-.192q-.32.128-.32.256-.064.065-.064.192-.192-.065-.192-.384l.192-.192q.128-.128.256-.128.192-.512-.32-.768a1 1 0 0 0-.192-.256.8.8 0 0 1-.192-.384v-.064a.98.98 0 0 1-.256-.512v-.576q0-.768.512-1.28 0 .128.064.32t.064.32q.128.384.128.576.32.192.384-.064.064-.192.064-.384t.064-.256v-.192q.128.192.128.512h.064v-.128a.5.5 0 0 0 .064-.192v-1.8559999999999999l-.064-.32q-.064 0-.064.064h-.128v-.064q0-.192.064-.32t.128-.32a.7.7 0 0 0 .064-.32v-.32q0-.128.064-.256.128-.192.128-.32v-2.1759999999999997q0-.127-.064-.192v-.064q-.128 0-.256.128a1.2 1.2 0 0 0-.064.384l.128.256q.064.064.064.32v.448q-.064.384-.256.32-.257-.256-.192-.448.128-.576.128-1.216v-1.28a.7.7 0 0 0-.064-.32v-.256q-.064-.448-.448-.448v-.448a1.2 1.2 0 0 1-.064-.384q0-.127-.064-.192-.064-.064-.064-.128 0-.384.064-.768a4 4 0 0 0 .064-.64v-3.2a.8.8 0 0 0-.192-.384l-.192-.384a4 4 0 0 0-.384-.448 5 5 0 0 0-.448-.512 3 3 0 0 0-.448-.576 7 7 0 0 0-.512-.576q-.065-.32-.192-.384-.064-.32-.32-.448l-.32-.32q-.127-.064-.384-.32-.064-.065-.064-.192v-.192q.065-.128.192-.128h.256q.32-.064.576-.128l.512-.128.32-.064q.127-.128.576-.128.384.065.64 0a6 6 0 0 0 .448-.128q.768-.256 1.664-.064.32.064.448-.064l.384-.256q0-.128.064-.128.128-.064.128-.128h.128q.128 0 .128-.064 0-.32.192-.32.192-.064.512-.128 0 .128.064.256a.43.43 0 0 1 .192.192.41.41 0 0 0 .32.32.7.7 0 0 0 .512-.192q.128-.128.256-.064h.384q.256.065.448.192.192.064.32.064.32.064.576.064h1.3439999999999999q.384 0 .896.064.384 0 .448-.384.257.32.576.384.32.064.64.064t.64.128l.64.128.256.128a.7.7 0 0 0 .32.064q1.152.384 2.304.576.704.32 1.216.384.32.128.576.192.256 0 .512.064.32 0 .576.064.32.064.448.448 0 .128.256.128.128.064.32.128.256 0 .32.128.256.064.256.256.064.128.128.32.064.064.064.128a.7.7 0 0 0 .256.128l.512.128a.454.454 0 0 1 .384.384q.256.256.384.448t.32.32q0 .064.064.128.064 0 .064.064.128.256.256.32.127.064.384.128.256 0 .256.192a.7.7 0 0 1 .128.256q.064.192.064.32.064.384.128.64t.128.576v.192a.8.8 0 0 1 .128.192q.127.064.192.256.127.128.192.256v.256q0 .127-.064.384 0 .192-.064.448t-.128.576l-.128.512a6.3 6.3 0 0 1-.32.96q-.064.128-.448.512l-.192.64q-.064.128-.064.384h-.256q-.065-.064-.192-.064-.32.192-.448.576-.064.257-.128.576a1.4 1.4 0 0 1-.256.576 7 7 0 0 0-.512.576q-.256.32-.448.576-.256.256-.576 0l-.128.128a.8.8 0 0 0-.192.32 1 1 0 0 1-.192.256q-.064.064-.064.512v.128q.064.065.064.192-.192.065-.256 0-.064-.127-.32-.192 0 .192-.064.384a2.5 2.5 0 0 0-.128.32.8.8 0 0 1-.192.32q-.256.256-.384.448a4.6 4.6 0 0 0-1.28 1.088 1 1 0 0 1-.192.256l-.192.192-.064.256q-.064.065-.064.192 0 .128-.128.256l-.064.256q-.064.384-.448.704-.065.065-.768.384-.64.257-1.344.576-.64.256-.704.448l-.64.128q-.064.064-.128.064t-.128.128q1.344-.384 1.664-.256.384.064.512.256.127.384.384.64.32.256.448.576.256.384.384.832.127.384.384.64.448.833 1.088 1.728.32.64.64 1.216.384.576.64 1.088.192.256.32.448a.8.8 0 0 1 .192.384l.128.128q.064.064.064.128.32.32.448.768.192.449.384.768.256.128.32.32.128.128.384.256 1.088.257 1.472.576.448.32.704.576a.96.96 0 0 1 .32.384q.192.192.32.384.384.384.576.832l.256.192q-1.6-.64-1.6-.576.064 0 .256.32a.83.83 0 0 1 .384.384q.128.192.32.384.192.448.576.704a.6.6 0 0 0 .256.064q.127 0 .192.064a6 6 0 0 1 .448.128q.192.064.256.064.449 0 .768.512.256.32.448.704l.384.768v.064q0 .064.064.128.32.256.704.512.384.257.768.384.384.192.384.64v.32q0 .384.384.512.32.128.576.256.32.128.576.32a.7.7 0 0 1 .128.384q.064.128.256.32l.128.512q.064.256.256.576.128.32.064.576 0 .128-.128.128a.7.7 0 0 0-.256.128 1 1 0 0 1-.192.256 5 5 0 0 0-.192.576 5 5 0 0 1-.192.576q-.064.257-.448.192a2.5 2.5 0 0 0-.32-.128l-.384-.128q-.704-.128-.96-.448 0-.128-.32-.128-.384.128-.576-.256-.257-.576-.576-.704-.064-.064-.128-.064-.064.065-.128 0-.256 0-.384-.064l-.256-.128a.43.43 0 0 0-.192-.192.7.7 0 0 0-.256-.128.44.44 0 0 1-.32-.128q-.256-.256-.384-.256a.8.8 0 0 1-.384-.192.39.39 0 0 0-.256-.256h-.192q-.064-.064-.128-.064-1.025-.192-1.728-.576a5 5 0 0 0-.448-.512 1.04 1.04 0 0 1-.192-.64q-.128-.064-.128-.256m-12.608-23.808h.064v.448q0 .257-.064.576v.64l-.128.512q0 .192-.064.448 0 .704.704.832l.128.128a.8.8 0 0 1 .192.128q.127 0 .384.256.192-.448.512-.32h.448q.192-.064.32-.32a.43.43 0 0 1 .192-.192l.192-.192q.127 0 .384.256.512 0 .512-.32v-.128l.064-.064q.192.064.32 0 .192-.128.32-.192.256-.192.512-.256.064-.064.128-.064.127 0 .192-.064a1.26 1.26 0 0 0 .384-.448.8.8 0 0 1 .448-.32.96.96 0 0 0 .384-.32l.32-.32a.6.6 0 0 0 .064-.256q-.127-.32 0-.448.32-.256.576-.448a.8.8 0 0 0 .32-.448l.128-.256q.127-.192.192-.448a.6.6 0 0 0 .064-.256.39.39 0 0 1 .256-.256V147.6l.064-.128q.576-.256.32-.704-.256-.192-.32-.384 0-.256-.064-.512a1 1 0 0 1-.064-.32q0-.128-.128-.32v-.448l.256-.384q.128-.192.32-.384a5.5 5.5 0 0 0 .448-1.792 9.6 9.6 0 0 0-.064-1.92q-.064-.32-.256-.448a2.5 2.5 0 0 0-.448-.32 2.5 2.5 0 0 0-.512-.192q-.256-.064-.512-.32 0-.192-.192-.192a42 42 0 0 0-1.088-.256 11 11 0 0 0-1.152-.192 3.1 3.1 0 0 0-.896 0h-.896q-.895 0-1.152.768-.064.32-.128.576a5 5 0 0 1-.192.576q-.065.64-.192 1.216-.065.512-.192 1.088v.064l-.128.128-.064-.064v-.384q-.32.576-.64 1.408l-.192 1.088q-.32.64-.192 1.024 0 .384-.32.448a1 1 0 0 0-.256-.192v.256q-.064.256-.128.576-.065.32-.192.448-.128.256-.128.448.064.192-.064.512a.5.5 0 0 1-.064.192.6.6 0 0 0-.064.256 9 9 0 0 1-.192.64 6 6 0 0 0-.192.704q-.064.256-.064.448a.7.7 0 0 1 .064.32v1.792q0 .192-.064.384a.6.6 0 0 0-.064.256q0 .257.064.576.064.32.128.576 0 .256.064.256l.192.128q.192 0 .192-.128a.8.8 0 0 0 .192-.32q.127-.192.192-.256.192-.192.192-.384.064-.192.064-.448a.6.6 0 0 0-.064-.256q0-.128.064-.256.064-.512.128-.96zm-2.048 18.624h.192v-.128q.064-.064.064-.128.064-.703.064-1.344.064-.64.064-1.28a3.3 3.3 0 0 0 .128-.896v-.832l.064-.32v-.448q.064-.256.064-.512v-1.472q-.065-.192-.384-.064-.32.128-.32.704v.64q-.064.448-.128 1.024a8 8 0 0 0-.064.96q0 .449.064.96a2.1 2.1 0 0 1-.064.896 3.6 3.6 0 0 0 0 .96q.127.512.192 1.024 0 .128.064.256m14.848-22.784h-.192q-.256-.065-.384.192-.128.128-.128.448.32.32.384.064.256-.256.32-.704M406.901 162q-.192.128-.192.448t.064.448q0-.192.064-.384.064-.256.064-.512m-1.536-10.048q.256-.512 0-.64-.192.192 0 .64m-4.992-9.472h-.064v.64h.064zm-.192 6.976q0-.192-.128-.576a.8.8 0 0 0-.128-.192.5.5 0 0 0-.064-.192q-.064-.064-.064-.128v-.896q0-.448.064-.96l.256.128q.127.064.192.32v.064q.192 0 .128.128v.192q0 .576-.064 1.088a8 8 0 0 0-.064 1.024zm-.768 5.056v1.536q0 .064-.128.256-.064.128-.128.064-.064 0-.064-.128v-.832q0-.192.128-.448.128-.128.128-.448zm1.536-2.816-.192.832q0 .064-.064.128h-.064q-.192-.32-.064-.384.064-.192.128-.32t.128-.32q.064.064.128.064m8.256-20.48a.43.43 0 0 1 .192.192l.128.128q-.257.064-.384-.256zm-1.344 18.752v-.768q.32.576 0 .768m38.367 30.976-.064-.064-.128-.384v-.192q0-.448-.128-.832a14 14 0 0 0-.256-.704 3 3 0 0 0-.192-.32l-.192-.192-.384-1.088a.6.6 0 0 1-.064-.256q.063-.128 0-.192 0-.128-.064-.128v-.128l-.448-.256q-.257.384-.32.64v.384q0 .256-.128.32-.192.192-.32-.256 0-.128-.128-.256-.384-.256-.384.256v.512q.063.192.064.384.127.448-.128.704-.32.192-.448-.128a4.3 4.3 0 0 1-.064-.704v-.64q.128-.64-.064-.96a.72.72 0 0 1-.064-.512q.128-.384-.064-.832-.064-.065-.064-.384v-.768q0-.256.064-.32.511-.32.576-.704a3.3 3.3 0 0 0 .128-.896v-2.3680000000000003a.5.5 0 0 0 .064-.192q.063-.064.064-.32v-.768q0-.448.064-.832v-.32q.192-.192.192-.384.064-.256.064-.512v-5.696q0-.576.064-1.152.127-.576.192-1.216v-.448l.128-.512q.063-.32.064-.704v-2.112l.192-3.712q.127-1.088.192-2.176l.128-2.176q.128-.64.128-1.344a122 122 0 0 1 .128-1.344q.128-.448.128-1.28.063-.832.064-1.6v-1.088q0-.448-.128-.512-.065-.064-.512 0l-1.664.448h-.512q-.32 0-.448.064a5 5 0 0 1-.512.128h-.512l-1.28.192h-.96q-.449 0-.768.128-.192 0-.384.064h-.32q-.768.256-1.472-.192-.064-.128-.256-.128t-.256-.064a3.3 3.3 0 0 1-.512-.32 1.3 1.3 0 0 0-.448-.384 1.5 1.5 0 0 1-.384-.256l-.576-.576q0-.065-.256-.192-.065-.064-.192-.064a.8.8 0 0 0-.192-.128 3 3 0 0 0-.448-.384 4 4 0 0 0-.448-.384q-.192-.32-.385 0-.255.192-.512-.128a1.05 1.05 0 0 1-.448-.512l-.256-.64q-.063-.127 0-.192v-.192q0-.256-.064-.256v-.192a4.6 4.6 0 0 0 0-1.088 4.7 4.7 0 0 1 0-1.088q0-.448.128-.96v-.32a1.2 1.2 0 0 1-.064-.384q-.127-.448 0-.512.513-.256.64.256.129.32.256.384.065 0 .32-.064.129 0 .257.064h.256q.128 0 .128.064h.128q.32-.064.512.064.256.128.448.256.192 0 .192-.064 0-.256.32-.128.32 0 .512.064l.128.192v.32h.064v-.128a.5.5 0 0 0 .064-.192q.512 0 .32.384-.192.449 0 .576.127.128.256.128h.384q.192 0 .447.064h.193a.5.5 0 0 1 .192-.064.5.5 0 0 0 .192.064q.127 0 .256.064.384.257.768.192.256 0 .448.064h.768q.255-.064.384-.064v-.128.064a.69.69 0 0 1 .64.064q.32.192.576 0 .127-.128.192-.256.128-.192.32-.32.128-.064.128-.128l.127-.128q.065.256.065.64h.64q.384 0 .64.064a.42.42 0 0 0 .384-.064.57.57 0 0 0 .32-.384q.063-.256.32-.128.32.128.512 0 .192-.192.384-.192h.512q.255.127.32-.192a.43.43 0 0 1 .192.192q.127.128.192.128.32.192.448-.064.127-.065.064-.192 0-.192-.128-.256-.129-.256 0-.384.32-.192.512.128.128.257.128.384.32.576.768.448.512-.127.704.192.063.064.128.064.127 0 .192-.128.255-.448.704-.32h.064q.383-.512.512-.64.127-.256.256-.256.383 0 .512.128a.59.59 0 0 0 .448.384q.32.064.576 0 .831 0 1.344.384 0 .064.192.064.703 0 1.152-.192.255 0 .32-.064.192-.065.32 0h.256q.32.127.64.192a.69.69 0 0 0 .64-.192q.255-.192.64 0a.96.96 0 0 0 .384.32q.32.064.512-.064h.192q.32.064.448-.32.127-.192.192-.32a1.6 1.6 0 0 0 .192-.384q.448.448.832.448.255 0 .448.128.192.127.384.192a.8.8 0 0 1 .32.192.5.5 0 0 0 .064-.192.5.5 0 0 0 .064-.192q0-.32.384-.384.255-.128.448-.128-.129.32-.192.32-.384 0-.384.384 0 .32.384.32.192 0 .384-.064.384-.064.64.128.255.128.64.256.127.128.384.128l.256.128q.192 0 .384.192.063.192.32.256.255 0 .384.128.447.192.447.256.193.127.385.192t.256.192q.063.064.192.064.447 0 .448.576.063.256.128.448.063.192.32.384.064.064.064.32v.064q-.256-.256-.384-.32a.5.5 0 0 0-.192.064h-.192q-.192 0-.192-.128-.449-.512-.896-.256-.065.192-.32.128a2.5 2.5 0 0 1-.32-.128q-.257-.128-.32-.128-.32-.192-.449.128-.063.448.193.704.32.32.768.512.512.128.896.256l.256.128q.127.128 0 .32h-.256a2 2 0 0 0-.448-.064q-.129 0-.448-.256-.065-.128-.192.128l-.256.256q-.129.192-.128.512 0 .448-.448.448a.6.6 0 0 1-.064-.256q0-.192-.064-.448a2 2 0 0 1-.256.32.7.7 0 0 0-.128.192q-.129.128-.192.128l-.064-.064a.8.8 0 0 0-.128-.192l-.128-.384q-.257.128-.384.576 0 .32-.32.32l.192-.448q.192-.384-.128-.64-.065 0-.32-.128-.321-.127-.384.192a1 1 0 0 0-.192.256q-.192.128-.448.448-.065.192-.32.064a.5.5 0 0 1-.192-.064.8.8 0 0 0-.192-.128q.063-.128.32-.128.127 0 .384-.128.192-.192 0-.512-.192-.448-.704-.064a.7.7 0 0 0-.256.256q-.129.128-.064.448 0-.064-.064-.064v-.128q0-.448-.192-.256a.7.7 0 0 1-.32-.064.5.5 0 0 1-.192-.064.6.6 0 0 0-.256-.064 1 1 0 0 1-.32-.064.7.7 0 0 1-.32.064q-.192 0-.384.064-.129.065-.384-.192-.065-.256-.32-.256a.7.7 0 0 0-.32.064q-.321 0-.384.32a3 3 0 0 1-.896 1.152l-.192.192-.192.192q-.192-.512-.128-.96.255-.449-.064-.576-.512 0-.704.064-.257.128-.32.448l-.128.512-.192.128v-.256l-.192-.448-.256.448v.5760000000000001q0 .192-.064.384 0 .192.128.32.447.384.128.64-.32.192-.064.512a.8.8 0 0 1 .192.128q.063 0 .128.064.127.256.576.512.383.192.704.256l.256.128.32.192q.063 0 .448.384.127.128.192.256a.8.8 0 0 1 .192.32q.127.065 0 .384-.129-.256-.128-.192-.129-.448-.448-.192-.256.128-.256.384 0 .576-.128.768l-.064.064q.063 0 0 .064v.64q0 .32-.064.768a6.7 6.7 0 0 0-.256 1.856q0 .96-.192 1.856 0 .065-.128.192.063-.32.064-.832.064-.32.064-.64v-.768q0-.064-.064-.128a.8.8 0 0 0-.128-.192q0 .064-.064.128v.192a2.3 2.3 0 0 0-.128.32q0 .192-.256.128-.064 0-.064.064v.064q-.128.256-.128.384-.129.768-.192 1.6-.065.768-.128 1.6a84 84 0 0 0-.256 1.792l-.256 1.792a5 5 0 0 1-.192.576l-.128.64a1.2 1.2 0 0 0-.064.384.28.28 0 0 1 0 .256q0 .256-.064.448v.384q0 .064-.064.128v.128l-.128.896a10 10 0 0 1-.192.96 9 9 0 0 0-.064 1.088q0 .512-.064.96-.065.64-.192 1.28-.129.64-.192 1.216v1.28q0 .576-.128 1.152 0 .576-.064 1.088-.065.448-.128.96l-.064.064v.064h-.064q.127-.448.064-.896a3.6 3.6 0 0 1 0-.96q.127-.32.064-.576 0-.256-.064-.64a4.2 4.2 0 0 1 0-1.472q.127-.704.256-1.472.064-.32.064-.704a2.4 2.4 0 0 0 0-.768v-.576q.063-.32.128-.576.063-.128.128-.32.063-.192.064-.384l.128-.768q.063-.448.064-.832 0-.32-.064-.64v-.64q0-.064.128-.448 0-.127.064-.192l.128-.256q.063-.512.064-.896 0-.448.064-.832l.192-1.728q.063-.576.064-1.088v-1.7919999999999998q.127-.192.192-.32a.6.6 0 0 0 .064-.256v-.896l.128-.896v-.32a3 3 0 0 1-.064-.576q0-.256-.064-.512v-.384q-.384 0-.384.192a1.6 1.6 0 0 1-.192.384 2 2 0 0 0-.128.384q-.129.576-.192 1.216 0 .64-.128 1.28a3.5 3.5 0 0 0-.256.96 7 7 0 0 0-.064.96q0 .256-.064.448l-.128.256h-.064v-.384a7 7 0 0 0 .128-.448q.128-.64.128-1.28t.064-1.28v-.192a.5.5 0 0 0 .064-.192q0-.192.064-.32.063-.192-.064-.256-.192-.704-.064-1.856l-.064-.448a1.8 1.8 0 0 0-.192.832q0 .127-.064.192v.192l-.128.384v.32q.127.448.064.896 0 .448-.128.96-.065.448-.128.832-.065.32-.32.704v.576q0 .64-.064 1.216-.065.512-.192 1.152-.256 1.28-.256 2.88-.064.064-.064.128.063 0 0 .064-.065.64-.192 1.28a71 71 0 0 0-.256 1.344 4.6 4.6 0 0 1-.256.96l-.256.896q0 .064-.064.128v.192q-.065.512-.128 1.152-.064.576-.064 1.216-.065.512-.128 1.152l-.128 1.28a26 26 0 0 0-.064 1.856v1.856l-.193 4.16-.191 2.176v.32q.063.128.128.32.063.256.32 0l.064-.448.256.192.128-.256.128-.256h.064q0 .64-.192 1.152 0 .064-.128.064h-.064q-.384-.064-.576.32-.256.576-.256 1.024 0 .512.064 1.024 0 .256-.128.256-.576 0-.704.704 0 .064-.064.128l-.128-.384a.6.6 0 0 1-.064-.256q-.513.32-.512 1.216m-2.176-2.24q-.064-.064-.064-.256.063-.256.064-.512 0-.256.192-.512l.128-.256h.064q.063.32.064.64v.448a1.4 1.4 0 0 0-.256.32q-.129.128-.192.128m4.928.256a.7.7 0 0 1-.128-.192q0-.128-.128-.192.383-.192.32.384zm1.408-.512a.6.6 0 0 0-.064-.256q0-.128.064-.256v-.192l.128.128q.128.064.128.128a.8.8 0 0 1-.128.192zm.064-3.328v-.704h.128q.192.384 0 .704zm.128-1.408a1.36 1.36 0 0 1-.064-.704q.127-.32.192-.576.064.256.064.576t-.192.704m-13.568-42.24-.192-.192a.8.8 0 0 0-.128-.192l-.192-.192h.064q.063-.064.128-.064.255.127.32.192.063.064.064.256 0 .128-.064.192m16.896 7.168q-.065.065-.128 0a.8.8 0 0 0-.192-.128q.063-.192.32-.32v-.064h.064q0 .127.064.192 0 .064-.064.064v.064q0 .192-.064.192M2.25 93.852v-.704q0-3.585.352-6.011.351-2.444 1.212-3.973.862-1.53 2.338-2.338 1.494-.808 3.744-1.09 2.25-.299 5.414-.299h6.61q4.148 0 6.732.317 2.603.315 3.99 1.213 1.407.895 1.934 2.619.527 1.705.527 4.482h-3.375q0-2.091-.369-3.252-.37-1.177-1.388-1.687-1.02-.528-2.971-.65-1.934-.123-5.08-.123h-6.61q-2.513 0-4.236.158-1.723.14-2.812.685-1.072.528-1.653 1.688-.562 1.16-.773 3.164t-.211 5.097v.704q0 2.988.21 4.957.213 1.968.774 3.146.58 1.177 1.653 1.758 1.09.58 2.812.756 1.723.176 4.236.176h7.788q2.9 0 4.675-.229 1.776-.246 2.69-1.02.931-.79 1.248-2.39.315-1.617.316-4.36V95.61h-12.92v-2.812h16.295v3.85q0 3.427-.58 5.572t-1.969 3.322q-1.371 1.16-3.761 1.582-2.373.44-5.994.439H15.31q-3.955 0-6.504-.544-2.55-.528-3.99-1.969-1.425-1.442-2.005-4.149-.562-2.706-.562-7.048M39.41 107l15.75-27h4.5l15.75 27h-3.937l-3.375-6.188H46.723L43.348 107zm9-9h18l-9-15.75zm31.5 9V80h3.375v24.188h21.375V107zm29.25 0V80h3.375v24.188h21.375V107zm29.25 0V80h26.508v2.813h-23.133v9h22.166v2.812h-22.166v9.563h23.625V107zm31.57-27h18.071q3.956 0 6.363.352 2.426.351 3.674 1.212 1.248.862 1.687 2.356t.44 3.78v.702q0 2.11-.51 3.639-.492 1.512-1.916 2.461-1.423.931-4.219 1.318l5.871 11.18h-3.375l-5.748-10.934a15 15 0 0 1-.738.018h-16.225V107h-3.375zm3.375 13.166h14.924q3.006 0 4.729-.193 1.74-.211 2.549-.721.826-.51 1.054-1.441.23-.932.229-2.409V87.7q0-1.67-.317-2.636-.316-.968-1.265-1.424-.95-.457-2.83-.58-1.881-.141-5.028-.141h-14.045zM206.613 107V80h3.375v27zm10.125 0V80h26.508v2.813h-23.133v9h22.166v2.812h-22.166v9.563h23.625V107z"></path></svg>
